<?xml version="1.0" standalone="no"?>
<!DOCTYPE svg PUBLIC "-//W3C//DTD SVG 1.1//EN" "http://www.w3.org/Graphics/SVG/1.1/DTD/svg11.dtd">
<svg xmlns="http://www.w3.org/2000/svg">
<defs >
<font id="RedHatDisplay" horiz-adv-x="518" ><font-face
    font-family="Red Hat Display Light"
    units-per-em="1000"
    panose-1="2 1 3 3 4 2 1 13 3 3"
    ascent="1018"
    descent="-305"
    alphabetic="0" />
<glyph unicode=" " horiz-adv-x="221" />
<glyph unicode="!" horiz-adv-x="174" d="M56 187L162 708H209L93 187H56ZM38 -5Q25 -5 15 5T5 29Q5 41 10 50T25 64T46 70Q60 70 69 60T79 36Q79 25 74 16T59 1T38 -5Z" />
<glyph unicode="&quot;" horiz-adv-x="262" d="M122 530L150 700H198L153 530H122ZM224 530L252 700H300L255 530H224Z" />
<glyph unicode="#" horiz-adv-x="657" d="M28 0L141 230H26L34 270H161L239 430H117L126 470H259L372 700H416L303 470H516L629 700H673L560 470H675L666 430H540L462 270H583L574 230H442L329 0H285L398 230H185L72 0H28ZM205 270H418L496 430H283L205 270Z" />
<glyph unicode="$" horiz-adv-x="540" d="M180 -67L199 23Q141 34 92 66T7 151L43 175Q107 82 208 64L267 340L241 348Q166 371 131 407T95 502Q95 556 123 596T203 659T322 682L340 681L358 767H400L381 676Q429 667 476 643T565 583L535 551Q459 620 372 635L316
371L331 367Q424 339 462 305T501 212Q501 155 470 111T385 42T258 17L240 18L222 -67H180ZM276 381L331 640H322Q238 640 189 602T139 502Q139 459 165 433T253 388L276 381ZM249 59Q309 59 356 76T430 128T457 212Q457 242 443 262T397 298T307 331L249 59Z"
/>
<glyph unicode="%" horiz-adv-x="743" d="M208 345Q153 345 120 382T87 482Q87 543 110 593T171 674T255 705Q311 705 343 668T376 568Q376 507 353 457T292 376T208 345ZM213 379Q247 379 276 405T322 475T340 569Q340 616 316 643T250 671Q216 671 187 645T141
576T123 481Q123 434 147 407T213 379ZM109 0L640 700H686L155 0H109ZM533 -5Q478 -5 445 32T412 132Q412 193 435 243T496 324T580 355Q636 355 668 318T701 218Q701 157 678 107T617 26T533 -5ZM538 29Q572 29 601 55T647 125T665 219Q665 266 641 293T575 321Q541
321 512 295T466 225T448 131Q448 84 472 57T538 29Z" />
<glyph unicode="&amp;" horiz-adv-x="626" d="M575 20L545 -10Q523 10 499 33T452 82Q404 37 347 13T231 -11Q167 -11 118 12T42 78T14 176Q14 221 33 257T98 329T224 402Q202 447 194 476T185 533Q185 583 207 623T268 687T354 711Q393 711 423 695T470 652T487
587Q487 532 454 492T344 414L283 383Q324 317 366 258T453 147Q490 188 521 238T575 345L615 329Q590 268 557 213T482 114Q505 89 528 65T575 20ZM229 533Q229 505 237 480T264 419L324 450Q389 483 416 514T443 587Q443 624 419 646T354 669Q319 669 291 651T246
603T229 533ZM59 176Q59 111 106 71T231 31Q284 31 332 52T423 115Q380 166 336 227T242 365Q171 332 131 303T75 243T59 176Z" />
<glyph unicode="&apos;" horiz-adv-x="160" d="M122 530L150 700H198L153 530H122Z" />
<glyph unicode="(" horiz-adv-x="371" d="M211 -221Q138 -155 97 -51T55 174Q55 294 98 401T221 590T406 715L420 671Q350 644 292 595T191 478T125 334T101 174Q101 59 138 -35T240 -184L211 -221Z" />
<glyph unicode=")" horiz-adv-x="371" d="M161 715Q235 649 276 545T317 320Q317 201 274 94T151 -95T-34 -221L-48 -177Q22 -150 80 -101T181 16T247 160T271 320Q271 435 234 529T132 678L161 715Z" />
<glyph unicode="*" horiz-adv-x="425" d="M216 352L249 500L113 432L97 464L238 535L135 615L157 643L262 561L290 700H327L296 563L427 626L443 594L305 527L412 444L390 416L283 500L253 352H216Z" />
<glyph unicode="+" horiz-adv-x="600" d="M260 152L299 337H131L140 378H308L346 560H387L349 378H517L508 337H340L301 152H260Z" />
<glyph unicode="," horiz-adv-x="250" d="M-16 -131L75 57H128L22 -131H-16Z" />
<glyph unicode="-" horiz-adv-x="434" d="M64 302H394L385 258H55L64 302Z" />
<glyph unicode="." horiz-adv-x="250" d="M76 -5Q63 -5 53 5T43 30Q43 42 48 51T63 65T84 71Q98 71 107 61T117 37Q117 25 112 16T97 1T76 -5Z" />
<glyph unicode="/" horiz-adv-x="425" d="M-161 -204L440 700H490L-111 -204H-161Z" />
<glyph unicode="0" horiz-adv-x="627" d="M278 -11Q212 -11 164 21T89 112T63 254Q63 346 89 428T162 574T268 674T394 711Q460 711 508 679T583 587T609 444Q609 353 583 271T510 126T404 26T278 -11ZM286 32Q340 32 389 66T478 160T541 294T564 449Q564 553
517 610T386 668Q332 668 283 633T194 539T131 406T108 251Q108 148 155 90T286 32Z" />
<glyph unicode="1" horiz-adv-x="257" d="M85 0L222 644L105 595L115 644L249 700H277L128 0H85Z" />
<glyph unicode="2" horiz-adv-x="535" d="M246 0L253 35L619 341Q686 397 716 444T747 538Q747 597 707 633T601 669Q554 669 505 650T397 589L373 625Q439 671 492 691T601 711Q657 711 700 690T767 630T792 541Q792 498 779 462T734 389T649 308L330 42H700L692 0H246Z" />
<glyph unicode="3" horiz-adv-x="573" d="M500 -11Q421 -11 358 17T250 104L284 130Q322 80 376 56T500 31Q560 31 606 53T679 113T706 196Q706 261 660 302T540 344H484L492 382H549Q611 382 655 403T722 460T746 534Q746 595 703 632T590 669Q541 669 494 651T392
594L368 628Q427 671 481 691T592 711Q650 711 694 689T765 627T791 538Q791 472 749 428T631 360Q687 340 719 297T751 199Q751 142 719 94T629 18T500 -11Z" />
<glyph unicode="4" horiz-adv-x="582" d="M366 0L408 197H16L23 232L513 700H558L460 239H541L533 197H451L409 0H366ZM91 239H417L500 629L91 239Z" />
<glyph unicode="5" horiz-adv-x="558" d="M500 -11Q425 -11 365 18T260 102L294 128Q332 79 383 55T501 31Q564 31 613 57T690 129T718 230Q718 306 668 348T526 390Q492 390 456 383T379 363L358 376L441 700H829L820 658H474L411 412Q443 422 474 426T534 431Q601
431 652 409T733 341T763 227Q763 162 730 108T638 22T500 -11Z" />
<glyph unicode="6" horiz-adv-x="611" d="M297 -11Q229 -11 178 22T98 115T69 254Q69 349 98 432T179 577T299 675T446 711Q487 711 528 699T609 663L581 625Q549 645 512 657T442 669Q366 669 301 629T190 519T125 358Q170 396 226 417T338 439Q399 439 447 412T524
337T553 230Q553 180 533 137T478 60T397 8T297 -11ZM300 31Q357 31 404 58T480 131T508 231Q508 280 485 317T422 375T329 397Q274 397 218 373T117 305Q107 223 126 162T190 66T300 31Z" />
<glyph unicode="7" horiz-adv-x="542" d="M299 0L809 658H369L378 700H876L869 665L353 0H299Z" />
<glyph unicode="8" horiz-adv-x="608" d="M277 -11Q209 -11 156 13T72 79T41 175Q41 224 67 266T139 338T243 378Q196 399 170 437T143 521Q143 574 174 617T259 685T376 711Q435 711 481 689T555 629T583 542Q583 501 562 465T503 404T415 366Q474 343 508 300T543
202Q543 143 507 95T411 18T277 -11ZM350 392Q403 392 445 412T513 466T539 542Q539 578 518 607T460 652T376 669Q324 669 281 649T213 596T187 521Q187 484 208 455T267 409T350 392ZM277 31Q338 31 388 54T468 116T498 202Q498 244 473 277T403 330T304 350Q244
350 195 327T116 264T86 175Q86 133 110 101T178 50T277 31Z" />
<glyph unicode="9" horiz-adv-x="611" d="M359 711Q428 711 479 678T558 586T587 446Q587 351 558 268T477 123T357 25T210 -11Q169 -11 128 1T47 37L75 75Q107 55 144 43T214 31Q290 31 355 71T466 181T531 342Q486 305 430 283T318 261Q257 261 209 288T132
363T103 470Q103 520 123 563T178 640T259 692T359 711ZM356 669Q299 669 252 642T177 569T148 469Q148 421 171 384T234 325T327 303Q382 303 438 327T539 395Q549 477 530 538T466 634T356 669Z" />
<glyph unicode=":" horiz-adv-x="250" d="M76 -5Q63 -5 53 5T43 30Q43 42 48 51T63 65T84 71Q98 71 107 61T117 37Q117 25 112 16T97 1T76 -5ZM167 422Q154 422 144 432T134 457Q134 469 139 478T154 492T175 498Q189 498 198 488T208 464Q208 452 203 443T188
428T167 422Z" />
<glyph unicode=";" horiz-adv-x="250" d="M170 422Q157 422 147 432T137 457Q137 469 142 478T157 492T178 498Q192 498 201 488T211 464Q211 452 206 443T191 428T170 422ZM238 -131L329 57H382L276 -131H238Z" />
<glyph unicode="&lt;" horiz-adv-x="600" d="M397 123L141 349L486 575L506 542L204 345L423 153L397 123Z" />
<glyph unicode="=" horiz-adv-x="600" d="M372 519L380 560H757L749 519H372ZM148 412L156 453H533L525 412H148Z" />
<glyph unicode="&gt;" horiz-adv-x="600" d="M203 575L459 349L114 123L94 156L396 353L177 545L203 575Z" />
<glyph unicode="?" horiz-adv-x="487" d="M175 193Q182 239 196 274T234 337T295 385L363 424Q412 452 436 487T460 563Q460 610 421 639T319 669Q272 669 225 649T130 590L102 622Q153 666 208 688T319 711Q373 711 415 692T480 640T504 563Q504 511 474 467T385
388L317 349Q273 324 249 287T215 193H175ZM160 -5Q147 -5 137 5T127 29Q127 41 132 50T147 64T168 70Q182 70 191 60T201 36Q201 25 196 16T181 1T160 -5Z" />
<glyph unicode="@" horiz-adv-x="771" d="M399 -144Q324 -144 260 -118T147 -44T72 68T45 207Q45 285 71 352T145 469T256 546T395 574Q466 574 526 551T630 486T700 388T725 265Q725 203 702 157T639 84T554 58Q492 58 467 100Q415 52 359 52Q318 52 286 71T235
125T216 202Q216 250 238 289T299 352T383 376Q415 376 442 364T488 332L494 362H533L496 176Q487 136 503 115T557 93Q592 93 621 115T667 176T685 266Q685 343 647 404T542 501T393 537Q329 537 273 512T175 442T109 337T85 208Q85 118 126 47T240 -65T403 -107Q499
-107 576 -64L591 -98Q549 -120 500 -132T399 -144ZM366 87Q419 87 456 129Q451 152 457 178L479 288Q465 312 438 326T379 341Q345 341 317 323T273 273T256 204Q256 152 286 120T366 87Z" />
<glyph unicode="A" horiz-adv-x="642" d="M-44 0L387 700H446L583 0H538L492 237H152L7 0H-44ZM177 278H484L410 659L177 278Z" />
<glyph unicode="B" horiz-adv-x="628" d="M29 0L178 700H415Q504 700 556 658T608 545Q608 475 565 428T447 363Q506 347 538 310T571 218Q571 153 539 104T450 28T316 0H29ZM156 387H376Q459 387 511 430T563 542Q563 595 524 626T415 657H214L156 387ZM83 43H316Q378
43 425 65T498 126T525 216Q525 275 481 309T359 344H147L83 43Z" />
<glyph unicode="C" horiz-adv-x="710" d="M394 -11Q325 -11 266 14T162 84T94 189T69 320Q69 401 99 471T181 596T300 680T444 711Q527 711 597 680T712 589L678 563Q638 613 578 640T441 668Q373 668 314 641T210 565T140 455T115 322Q115 244 150 178T248 72T397
32Q462 32 524 55T636 123L664 89Q609 41 539 15T394 -11Z" />
<glyph unicode="D" horiz-adv-x="699" d="M29 0L178 700H363Q435 700 493 679T592 617T656 519T678 392Q678 309 647 238T560 114T429 30T267 0H29ZM83 43H275Q349 43 414 70T528 145T604 257T632 394Q632 474 599 533T506 624T365 657H214L83 43Z" />
<glyph unicode="E" horiz-adv-x="590" d="M29 0L178 700H653L644 657H214L154 375H435L426 332H145L83 43H517L508 0H29Z" />
<glyph unicode="F" horiz-adv-x="580" d="M29 0L178 700H652L643 657H214L153 370H433L424 327H144L74 0H29Z" />
<glyph unicode="G" horiz-adv-x="773" d="M394 -11Q325 -11 266 14T162 84T94 189T69 320Q69 401 99 471T181 596T300 680T444 711Q527 711 597 680T712 589L678 563Q638 613 578 640T441 668Q373 668 314 641T210 565T140 455T115 322Q115 244 150 178T248 72T397
32Q472 32 536 68T643 168T698 311H434L438 354H748L741 309Q727 219 679 147T557 32T394 -11Z" />
<glyph unicode="H" horiz-adv-x="690" d="M29 0L178 700H223L153 373H591L661 700H706L557 0H512L583 332H145L74 0H29Z" />
<glyph unicode="I" horiz-adv-x="207" d="M29 0L178 700H223L74 0H29Z" />
<glyph unicode="J" horiz-adv-x="571" d="M225 -11Q143 -11 87 33T10 156L48 172Q86 32 226 32Q319 32 380 95T463 262L556 700H601L508 262Q491 179 454 118T360 23T225 -11Z" />
<glyph unicode="K" horiz-adv-x="568" d="M29 0L178 700H223L153 370L597 700H668L200 355L523 0H463L148 349L74 0H29Z" />
<glyph unicode="L" horiz-adv-x="581" d="M29 0L178 700H223L83 43H507L498 0H29Z" />
<glyph unicode="M" horiz-adv-x="814" d="M29 0L178 700H247L384 150L757 700H830L681 0H636L775 655L365 50L213 655L74 0H29Z" />
<glyph unicode="N" horiz-adv-x="699" d="M29 0L178 700H223L539 76L672 700H715L566 0H531L208 638L72 0H29Z" />
<glyph unicode="O" horiz-adv-x="793" d="M388 -11Q319 -11 261 13T160 82T92 185T68 314Q68 394 98 466T182 593T304 679T450 711Q519 711 577 687T678 618T746 515T770 386Q770 307 740 236T657 109T535 21T388 -11ZM391 32Q460 32 520 60T626 137T698 249T724
384Q724 461 690 525T594 629T447 668Q378 668 318 640T212 563T140 451T114 316Q114 239 148 175T244 71T391 32Z" />
<glyph unicode="P" horiz-adv-x="618" d="M29 0L178 700H434Q495 700 539 680T608 621T633 527Q633 464 603 415T518 338T390 309H140L74 0H29ZM149 352H390Q449 352 493 374T562 436T587 525Q587 590 547 623T435 657H214L149 352Z" />
<glyph unicode="Q" horiz-adv-x="792" d="M388 -11Q319 -11 261 13T160 82T92 185T68 314Q68 394 98 466T182 593T304 679T450 711Q519 711 577 687T678 618T746 515T770 386Q770 296 731 216T627 80L685 -11L635 -15L592 53Q548 23 496 6T388 -11ZM391 32Q441
32 486 47T570 89L490 215L539 219L605 116Q660 165 692 235T724 384Q724 461 690 525T594 629T447 668Q378 668 318 640T212 563T140 451T114 316Q114 239 148 175T244 71T391 32Z" />
<glyph unicode="R" horiz-adv-x="616" d="M29 0L178 700H434Q495 700 539 680T607 623T631 534Q631 476 606 430T537 354T434 315L530 0H484L389 312H140L74 0H29ZM150 355H389Q447 355 491 377T560 440T585 531Q585 590 545 623T433 657H214L150 355Z" />
<glyph unicode="S" horiz-adv-x="576" d="M283 -11Q197 -11 125 28T2 143L40 169Q84 102 146 67T282 32Q345 32 392 53T466 111T493 196Q493 247 457 276T335 330L261 351Q174 376 131 417T87 523Q87 580 116 622T199 688T323 711Q393 711 463 682T590 599L560
566Q508 615 446 641T321 668Q234 668 184 628T133 523Q133 476 166 446T273 395L347 374Q446 346 492 306T539 196Q539 134 506 88T416 15T283 -11Z" />
<glyph unicode="T" horiz-adv-x="588" d="M220 0L360 657H104L113 700H669L660 657H405L265 0H220Z" />
<glyph unicode="U" horiz-adv-x="680" d="M314 -11Q233 -11 172 25T84 129T77 292L164 700H209L123 297Q105 212 125 153T194 63T313 32Q414 32 483 101T579 295L665 700H710L624 295Q604 199 562 131T458 26T314 -11Z" />
<glyph unicode="V" horiz-adv-x="642" d="M242 0L105 700H150L278 41L682 700H732L301 0H242Z" />
<glyph unicode="W" horiz-adv-x="867" d="M165 0L135 700H178L205 81L507 700H553L593 79L881 700H927L600 0H558L518 638L207 0H165Z" />
<glyph unicode="X" horiz-adv-x="599" d="M-46 0L296 367L123 700H173L328 398L610 700H669L349 361L541 0H491L317 329L13 0H-46Z" />
<glyph unicode="Y" horiz-adv-x="597" d="M223 0L285 292L104 700H152L314 333L631 700H688L329 288L268 0H223Z" />
<glyph unicode="Z" horiz-adv-x="586" d="M-27 0L-19 35L569 657H117L125 700H644L636 665L48 43H514L505 0H-27Z" />
<glyph unicode="[" horiz-adv-x="320" d="M-41 -215L153 700H379L371 661H189L11 -176H193L184 -215H-41Z" />
<glyph unicode="\" horiz-adv-x="367" d="M364 -204H320L101 700H145L364 -204Z" />
<glyph unicode="]" horiz-adv-x="320" d="M360 700L166 -215H-60L-52 -176H130L308 661H126L135 700H360Z" />
<glyph unicode="^" horiz-adv-x="600" d="M117 350L375 700H416L526 350H482L388 651L166 350H117Z" />
<glyph unicode="_" horiz-adv-x="466" d="M-79 -124L-70 -80H398L389 -124H-79Z" />
<glyph unicode="`" horiz-adv-x="600" d="M354 596L238 706H303L396 596H354Z" />
<glyph unicode="a" horiz-adv-x="489" d="M187 -10Q112 -10 66 28T20 130Q20 179 45 214T116 269T217 289Q264 289 308 274T384 233L401 314Q416 385 388 424T285 463Q247 463 209 453T124 421L109 459Q160 482 201 492T281 502Q339 502 380 482T440 421T445 318L377
0H334L343 43Q309 18 270 4T187 -10ZM195 29Q241 29 280 45T354 92L375 192Q314 251 213 251Q148 251 106 220T63 132Q63 87 96 58T195 29Z" />
<glyph unicode="b" horiz-adv-x="560" d="M249 -10Q195 -10 150 12T75 72L59 0H16L165 700L210 711L155 451Q223 502 302 502Q365 502 413 473T490 392T518 274Q518 216 497 165T439 74T354 12T249 -10ZM248 32Q311 32 362 64T443 150T474 271Q474 327 451 369T388
436T295 460Q253 460 214 444T143 397L86 126Q105 85 150 59T248 32Z" />
<glyph unicode="c" horiz-adv-x="493" d="M258 -10Q198 -10 149 20T72 103T43 219Q43 276 64 327T123 417T209 479T312 502Q364 502 413 477T495 407L462 378Q435 416 395 438T308 460Q264 460 225 441T154 388T105 311T87 219Q87 166 109 124T172 57T262 32Q297
32 334 46T411 88L437 52Q350 -10 258 -10Z" />
<glyph unicode="d" horiz-adv-x="560" d="M259 -10Q197 -10 148 19T71 101T43 218Q43 277 64 328T122 418T208 480T312 502Q366 502 412 480T486 420L546 700L591 711L440 0H397L406 41Q339 -10 259 -10ZM266 32Q308 32 347 48T417 95L475 366Q456 407 411 433T313
460Q250 460 199 428T118 341T87 221Q87 166 110 123T173 56T266 32Z" />
<glyph unicode="e" horiz-adv-x="539" d="M263 -10Q203 -10 153 20T73 103T43 219Q43 278 63 329T120 419T204 480T306 502Q364 502 408 473T477 394T502 280Q502 275 501 258T499 234H87Q85 176 107 130T171 58T265 32Q304 32 341 44T412 76L436 40Q399 16 354
3T263 -10ZM93 276H459Q461 326 443 367T388 434T302 460Q251 460 208 436T135 371T93 276Z" />
<glyph unicode="f" horiz-adv-x="341" d="M81 0L176 452H60L69 492H185L210 611Q224 675 260 707T355 740Q375 740 391 737T425 726L417 684Q400 692 386 695T355 698Q312 698 288 676T252 603L228 492H377L368 452H220L124 0H81Z" />
<glyph unicode="g" horiz-adv-x="563" d="M237 -214Q186 -214 132 -194T36 -140L64 -108Q107 -140 149 -156T234 -172Q357 -172 389 -39L409 43Q339 -10 259 -10Q197 -10 148 19T71 101T43 218Q43 277 64 328T122 418T208 480T312 502Q366 502 412 480T487 419L502
492H545L431 -43Q413 -126 364 -170T237 -214ZM266 32Q356 32 420 98L476 365Q457 407 412 433T313 460Q250 460 199 428T118 341T87 221Q87 166 110 123T173 56T266 32Z" />
<glyph unicode="h" horiz-adv-x="519" d="M16 0L165 700L210 711L151 433Q219 502 308 502Q364 502 404 476T461 404T466 297L403 0H360L422 291Q439 369 405 415T300 461Q253 461 211 439T140 379L59 0H16Z" />
<glyph unicode="i" horiz-adv-x="179" d="M16 0L121 492H164L59 0H16ZM170 603Q156 603 146 613T136 638Q136 650 141 659T156 673T177 679Q191 679 201 669T211 645Q211 633 206 624T191 609T170 603Z" />
<glyph unicode="j" horiz-adv-x="178" d="M170 603Q156 603 146 613T136 637Q136 649 141 658T156 672T177 678Q191 678 201 668T211 644Q211 633 206 624T191 609T170 603ZM-87 -214Q-97 -214 -107 -213T-127 -209L-118 -165Q-109 -169 -99 -170T-79 -171Q-47
-171 -29 -152T-3 -95L121 492H164L38 -105Q28 -156 -5 -185T-87 -214Z" />
<glyph unicode="k" horiz-adv-x="453" d="M16 0L165 700L210 711L117 274L423 492H494L157 256L402 0H343L111 245L59 0H16Z" />
<glyph unicode="l" horiz-adv-x="178" d="M16 0L165 700L210 711L59 0H16Z" />
<glyph unicode="m" horiz-adv-x="821" d="M16 0L121 492H164L151 433Q219 502 303 502Q356 502 394 475T445 402Q490 454 534 478T627 502Q679 502 715 477T766 409T770 307L705 0H662L727 305Q741 373 711 417T618 461Q527 461 452 362Q453 349 452 335T447 307L382
0H339L402 296Q418 371 388 416T294 461Q249 461 210 439T139 376L59 0H16Z" />
<glyph unicode="n" horiz-adv-x="519" d="M16 0L121 492H164L152 434Q217 502 308 502Q364 502 404 477T461 405T466 297L403 0H360L422 291Q439 369 405 415T300 461Q253 461 211 440T140 380L59 0H16Z" />
<glyph unicode="o" horiz-adv-x="569" d="M258 -10Q198 -10 149 20T72 103T43 219Q43 276 64 327T123 417T209 479T312 502Q373 502 421 472T498 389T527 273Q527 216 506 165T448 74T362 13T258 -10ZM262 32Q306 32 345 51T416 104T465 181T483 273Q483 327 461
369T399 435T308 460Q264 460 225 441T154 388T105 311T87 219Q87 166 109 124T172 57T262 32Z" />
<glyph unicode="p" horiz-adv-x="560" d="M-27 -204L121 492H164L156 451Q222 502 302 502Q365 502 413 473T490 392T518 274Q518 216 497 165T439 74T354 12T249 -10Q195 -10 150 12T75 72L16 -204H-27ZM248 32Q311 32 362 64T443 150T474 271Q474 327 451 369T388
436T295 460Q253 460 214 444T143 397L86 126Q105 85 150 59T248 32Z" />
<glyph unicode="q" horiz-adv-x="560" d="M354 -204L406 41Q372 16 335 3T259 -10Q197 -10 148 19T71 101T43 218Q43 277 64 328T122 418T208 480T312 502Q366 502 412 480T486 420L502 492H545L397 -204H354ZM266 32Q308 32 347 48T417 95L475 367Q456 408 411
434T313 460Q250 460 199 428T118 341T87 221Q87 166 110 123T173 56T266 32Z" />
<glyph unicode="r" horiz-adv-x="312" d="M16 0L121 492H164L149 421Q177 459 215 480T296 502Q328 502 344 496L334 451Q324 456 312 458T286 460Q194 460 135 355L59 0H16Z" />
<glyph unicode="s" horiz-adv-x="417" d="M187 -12Q127 -12 76 13T-11 84L24 111Q53 73 95 51T186 29Q249 29 290 60T332 138Q332 170 312 188T241 219L167 237Q104 252 75 281T46 358Q46 401 68 433T129 483T219 502Q270 502 318 482T410 421L380 389Q342 424
302 442T218 461Q160 461 125 433T90 360Q90 329 109 310T177 279L251 261Q316 245 346 217T376 140Q376 97 351 63T284 8T187 -12Z" />
<glyph unicode="t" horiz-adv-x="330" d="M199 -10Q137 -10 109 20T93 106L167 452H60L69 492H175L202 616L248 630L219 492H365L356 452H210L138 115Q128 70 146 51T215 31Q226 31 238 33T271 42L262 -1Q246 -5 231 -7T199 -10Z" />
<glyph unicode="u" horiz-adv-x="519" d="M212 -10Q157 -10 117 15T59 87T55 195L117 492H160L98 202Q82 124 116 78T220 31Q267 31 309 53T380 113L461 492H504L399 0H356L368 58Q302 -10 212 -10Z" />
<glyph unicode="v" horiz-adv-x="473" d="M164 0L60 492H105L195 61L469 492H519L204 0H164Z" />
<glyph unicode="w" horiz-adv-x="657" d="M111 0L68 492H111L146 67L359 492H402L433 64L650 492H695L443 0H399L368 428L154 0H111Z" />
<glyph unicode="x" horiz-adv-x="451" d="M-44 0L204 258L78 492H127L235 288L430 492H487L255 252L391 0H342L225 222L13 0H-44Z" />
<glyph unicode="y" horiz-adv-x="471" d="M-17 -214Q-26 -214 -37 -213T-61 -208L-52 -164Q-44 -167 -33 -168T-11 -170Q20 -170 47 -151T99 -93L159 2L60 492H105L193 54L468 492H517L145 -98Q106 -159 68 -186T-17 -214Z" />
<glyph unicode="z" horiz-adv-x="437" d="M-20 0L-12 39L381 450H79L88 492H449L441 453L48 42H355L346 0H-20Z" />
<glyph unicode="{" horiz-adv-x="352" d="M160 -214Q102 -214 71 -187T42 -113T81 -11L145 84Q170 122 172 154T158 205T105 225H34L42 267H114Q168 267 196 306T214 407L196 524Q188 578 201 620T246 686T321 711Q340 711 361 706T401 691L382 656Q368 663 352
666T319 670Q274 670 253 635T238 543L258 399Q263 363 253 331T219 276T160 243Q189 228 202 204T213 148T189 84L113 -38Q88 -78 87 -109T105 -158T163 -176Q175 -176 184 -174T207 -168L211 -205Q195 -210 183 -212T160 -214Z" />
<glyph unicode="|" horiz-adv-x="245" d="M7 -204L199 700H240L48 -204H7Z" />
<glyph unicode="}" horiz-adv-x="352" d="M193 711Q252 711 282 684T312 610T272 508L208 413Q183 376 181 344T195 292T248 272H319L311 230H239Q185 230 157 191T139 90L157 -27Q165 -80 152 -122T108 -189T32 -214Q13 -214 -8 -209T-48 -194L-29 -159Q-15 -166
1 -169T34 -173Q79 -173 101 -138T115 -46L95 98Q90 135 100 166T135 221T193 254Q164 269 151 293T140 349T164 413L240 535Q265 575 266 606T249 655T190 673Q178 673 169 672T146 665L142 702Q159 707 171 709T193 711Z" />
<glyph unicode="~" horiz-adv-x="600" d="M126 308L90 314Q104 379 143 413T220 448Q246 448 266 441T310 418L373 377Q393 364 408 360T437 356Q468 356 493 379T532 452L568 446Q555 382 516 347T438 312Q412 312 392 319T348 342L285 383Q266 396 251 400T221
404Q190 404 165 381T126 308Z" />
<glyph unicode="&#xa0;" horiz-adv-x="221" />
<glyph unicode="&#xa1;" horiz-adv-x="173" d="M120 317L14 -204H-33L83 317H120ZM138 509Q152 509 161 499T171 475Q171 464 166 455T151 440T130 434Q117 434 107 444T97 468Q97 480 102 489T117 503T138 509Z" />
<glyph unicode="&#xa2;" horiz-adv-x="498" d="M179 -116L203 -3Q156 10 120 42T63 120T43 219Q43 276 64 327T123 417T208 479T310 502L333 608H374L351 498Q393 491 430 467T495 407L462 378Q440 410 409 430T342 457L252 32Q293 31 330 44T411 88L437 52Q390
18 342 3T243 -9L220 -116H179ZM212 39L301 460Q244 458 195 424T117 336T87 219Q87 154 121 105T212 39Z" />
<glyph unicode="&#xa3;" horiz-adv-x="588" d="M409 -26Q395 -26 380 -24T347 -18L147 31Q134 34 121 36T96 38Q31 38 -8 -25L-42 1Q-15 43 22 62T105 81Q127 89 141 116T157 182L163 314H55L64 355H164L169 470Q172 544 198 598T272 681T381 711Q473 711 525
661T584 519L541 513Q532 669 381 669Q306 669 262 616T213 468L208 355H425L415 314H207L201 180Q198 108 157 73L357 24Q372 20 385 18T412 16Q465 16 505 62L539 34Q512 3 480 -11T409 -26Z" />
<glyph unicode="&#xa4;" horiz-adv-x="632" d="M58 71L30 99L124 194Q97 228 82 270T67 360Q67 407 82 449T124 526L30 621L58 649L151 555Q183 584 225 601T316 618Q365 618 407 601T481 555L574 649L602 621L508 526Q535 492 550 450T565 360Q565 313 550 271T508
194L602 99L574 71L481 165Q449 136 407 119T316 102Q267 102 225 119T151 165L58 71ZM316 142Q375 142 421 171T495 249T523 360Q523 421 496 470T422 549T316 578Q258 578 211 549T137 471T109 360Q109 299 136 250T211 171T316 142Z" />
<glyph unicode="&#xa5;" horiz-adv-x="630" d="M239 0L269 142H81L89 183H278L296 269H107L115 310H293L120 700H168L330 333L647 700H704L364 310H537L529 269H341L323 183H511L503 142H314L284 0H239Z" />
<glyph unicode="&#xa6;" horiz-adv-x="245" d="M153 291H112L199 700H240L153 291ZM7 -204L93 205H134L48 -204H7Z" />
<glyph unicode="&#xa7;" horiz-adv-x="549" d="M242 -49Q198 -49 150 -32T58 16L84 50Q124 22 164 8T242 -7Q295 -7 325 18T355 87Q355 138 292 167L190 215Q135 240 110 271T84 343Q84 396 126 433T237 480Q187 518 187 575Q187 616 206 646T261 694T344 711Q388
711 436 695T528 646L502 612Q462 640 422 654T344 669Q292 669 262 644T231 575Q231 524 294 495L396 447Q451 422 476 391T502 319Q502 266 460 230T349 182Q399 144 399 87Q399 46 380 16T325 -32T242 -49ZM304 208Q373 209 415 239T458 319Q458 347 440 368T378
409L282 454Q213 453 171 423T128 343Q128 315 146 294T208 253L304 208Z" />
<glyph unicode="&#xa8;" horiz-adv-x="600" d="M302 603Q289 603 279 613T269 638Q269 655 281 667T310 679Q324 679 333 669T343 645Q343 627 331 615T302 603ZM459 603Q446 603 436 613T426 638Q426 655 438 667T467 679Q481 679 490 669T500 645Q500 627 488
615T459 603Z" />
<glyph unicode="&#xa9;" horiz-adv-x="801" d="M396 -9Q301 -9 227 33T109 148T66 314Q66 394 96 464T179 589T301 673T448 704Q543 704 617 662T735 547T778 381Q778 302 748 232T665 107T543 22T396 -9ZM396 27Q467 27 529 55T638 132T713 245T740 381Q740 465
702 529T599 631T448 668Q378 668 316 640T206 563T131 450T104 314Q104 230 142 166T246 64T396 27ZM416 168Q370 168 334 189T277 247T256 330Q256 385 282 431T353 505T450 533Q495 533 531 514T590 462L560 442Q541 468 512 482T450 497Q408 497 373 474T316
413T294 330Q294 275 329 240T416 204Q467 204 516 239L538 209Q510 189 479 179T416 168Z" />
<glyph unicode="&#xaa;" horiz-adv-x="386" d="M207 325Q150 325 115 355T80 433Q80 486 121 518T230 551Q265 551 297 541T354 513L365 567Q389 677 274 677Q248 677 220 671T158 650L146 681Q214 711 277 711Q348 711 383 673T404 572L353 332H315L322 365Q270
325 207 325ZM215 359Q276 359 331 407L346 478Q303 518 227 518Q180 518 150 495T119 436Q119 399 144 379T215 359Z" />
<glyph unicode="&#xab;" horiz-adv-x="554" d="M364 492L84 242L255 0H209L35 246L310 492H364ZM555 492L275 242L446 0H400L226 246L501 492H555Z" />
<glyph unicode="&#xac;" horiz-adv-x="600" d="M396 0L451 259H55L64 300H501L437 0H396Z" />
<glyph unicode="&#xad;" horiz-adv-x="500" d="M64 302H394L385 258H55L64 302Z" />
<glyph unicode="&#xae;" horiz-adv-x="480" d="M278 312Q227 312 188 334T126 397T103 488Q103 534 120 574T166 645T234 693T316 711Q368 711 407 689T468 627T491 535Q491 489 474 449T428 378T361 330T278 312ZM278 342Q328 342 369 368T434 439T459 535Q459
600 420 640T316 681Q267 681 226 655T160 585T135 488Q135 423 174 383T278 342ZM212 419L252 607H316Q343 607 357 594T372 554Q372 534 359 518T326 495L355 419H325L295 491H255L240 419H212ZM311 583H276L260 515H304Q322 515 333 525T344 552Q344 583 311
583Z" />
<glyph unicode="&#xaf;" horiz-adv-x="600" d="M250 620L257 657H519L511 620H250Z" />
<glyph unicode="&#xb0;" horiz-adv-x="386" d="M248 431Q213 431 185 448T139 493T122 557Q122 600 143 634T199 690T277 711Q312 711 340 694T386 649T403 585Q403 543 382 508T326 452T248 431ZM250 469Q281 469 306 484T347 524T363 581Q363 619 338 646T275
673Q244 673 219 658T178 618T162 561Q162 523 187 496T250 469Z" />
<glyph unicode="&#xb1;" horiz-adv-x="600" d="M59 -1L68 40H445L436 -1H59ZM262 162L302 348H133L142 388H310L349 571H390L351 388H519L510 348H343L303 162H262Z" />
<glyph unicode="&#xb2;" horiz-adv-x="279" d="M48 350L55 378L233 523Q267 551 281 572T295 617Q295 642 276 657T224 672Q201 672 179 663T127 633L105 659Q137 682 166 693T224 705Q271 705 300 681T330 617Q330 586 313 559T255 499L111 383H286L280 350H48Z" />
<glyph unicode="&#xb3;" horiz-adv-x="299" d="M181 345Q139 345 108 360T53 404L81 426Q98 402 123 390T183 378Q223 378 250 398T277 450Q277 477 256 494T201 511H173L179 542H206Q246 542 272 562T299 612Q299 639 279 655T225 672Q177 672 129 635L111 662Q139
683 169 694T229 705Q275 705 304 680T334 616Q334 585 314 561T257 526Q283 516 297 497T312 452Q312 422 295 398T248 359T181 345Z" />
<glyph unicode="&#xb4;" horiz-adv-x="600" d="M347 596L464 706H532L393 596H347Z" />
<glyph unicode="&#xb5;" horiz-adv-x="523" d="M-26 -204L121 492H164L99 183Q89 113 123 72T224 31Q271 31 313 53T384 113L465 492H508L403 0H360L372 58Q306 -10 216 -10Q167 -10 131 12T76 73L17 -204H-26Z" />
<glyph unicode="&#xb6;" horiz-adv-x="616" d="M263 0L329 309H295Q234 309 190 329T121 389T96 482Q96 545 126 594T212 672T339 700H632L483 0H438L504 309H374L308 0H263ZM384 352H513L578 657H449L384 352ZM294 352H339L404 657H339Q281 657 237 635T167 573T142
484Q142 420 182 386T294 352Z" />
<glyph unicode="&#xb7;" horiz-adv-x="250" d="M124 242Q111 242 101 252T91 277Q91 289 96 298T111 312T132 318Q146 318 155 308T165 284Q165 272 160 263T145 248T124 242Z" />
<glyph unicode="&#xb8;" horiz-adv-x="600" d="M201 -224Q169 -224 141 -212T97 -180L123 -157Q156 -193 201 -193Q238 -193 258 -177T278 -135Q278 -112 259 -101T211 -89H187L230 0H262L233 -60Q272 -64 292 -82T312 -130Q312 -158 298 -179T258 -212T201 -224Z" />
<glyph unicode="&#xb9;" horiz-adv-x="148" d="M103 350L168 657L103 631L112 669L188 700H212L138 350H103Z" />
<glyph unicode="&#xba;" horiz-adv-x="446" d="M268 325Q222 325 184 349T122 413T99 502Q99 560 125 607T196 682T295 711Q342 711 380 687T441 623T464 534Q464 477 438 430T367 354T268 325ZM270 363Q313 363 348 386T404 447T425 533Q425 572 408 603T360
654T294 673Q251 673 216 650T159 589T138 503Q138 464 156 432T204 382T270 363Z" />
<glyph unicode="&#xbb;" horiz-adv-x="555" d="M191 0L471 250L300 492H346L520 246L245 0H191ZM0 0L280 250L109 492H155L329 246L54 0H0Z" />
<glyph unicode="&#xbc;" horiz-adv-x="575" d="M422 0L442 93H246L252 121L493 350H533L484 126H526L519 93H477L457 0H422ZM306 126H449L487 298L306 126ZM103 350L168 657L103 631L112 669L188 700H212L138 350H103ZM248 0L779 700H825L294 0H248Z" />
<glyph unicode="&#xbd;" horiz-adv-x="611" d="M103 350L168 657L103 631L112 669L188 700H212L138 350H103ZM240 0L771 700H817L286 0H240ZM301 0L308 28L486 173Q520 201 534 222T548 267Q548 292 529 307T477 322Q454 322 432 313T380 283L358 309Q390 332
419 343T477 355Q524 355 553 331T583 267Q583 236 566 209T508 149L364 33H539L533 0H301Z" />
<glyph unicode="&#xbe;" horiz-adv-x="669" d="M181 345Q139 345 108 360T53 404L81 426Q98 402 123 390T183 378Q223 378 250 398T277 450Q277 477 256 494T201 511H173L179 542H206Q246 542 272 562T299 612Q299 639 279 655T225 672Q177 672 129 635L111 662Q139
683 169 694T229 705Q275 705 304 680T334 616Q334 585 314 561T257 526Q283 516 297 497T312 452Q312 422 295 398T248 359T181 345ZM516 0L536 93H340L346 121L587 350H627L578 126H620L613 93H571L551 0H516ZM400 126H543L581 298L400 126ZM85 0L616 700H662L131
0H85Z" />
<glyph unicode="&#xbf;" horiz-adv-x="487" d="M313 304Q307 258 293 223T254 160T193 112L125 73Q76 45 52 10T28 -66Q28 -113 67 -142T169 -172Q216 -172 264 -152T358 -93L386 -125Q335 -168 280 -191T169 -214Q115 -214 74 -195T8 -143T-16 -66Q-16 -13 14
31T103 109L171 148Q215 174 239 210T273 304H313ZM328 502Q342 502 351 492T361 468Q361 457 356 448T341 433T320 427Q307 427 297 437T287 461Q287 473 292 482T307 496T328 502Z" />
<glyph unicode="&#xc0;" horiz-adv-x="642" d="M-44 0L387 700H446L583 0H538L492 237H152L7 0H-44ZM177 278H484L410 659L177 278ZM419 804L303 914H368L461 804H419Z" />
<glyph unicode="&#xc1;" horiz-adv-x="642" d="M-44 0L387 700H446L583 0H538L492 237H152L7 0H-44ZM177 278H484L410 659L177 278ZM412 804L529 914H597L458 804H412Z" />
<glyph unicode="&#xc2;" horiz-adv-x="642" d="M-44 0L387 700H446L583 0H538L492 237H152L7 0H-44ZM177 278H484L410 659L177 278ZM316 799L438 914H490L562 799H527L460 882L355 799H316Z" />
<glyph unicode="&#xc3;" horiz-adv-x="642" d="M-44 0L387 700H446L583 0H538L492 237H152L7 0H-44ZM177 278H484L410 659L177 278ZM326 806L289 816Q328 897 381 897Q408 897 431 883T476 854T519 840Q536 840 547 852T572 893L609 883Q590 840 567 821T515 802Q489
802 466 816T421 844T378 858Q362 858 350 846T326 806Z" />
<glyph unicode="&#xc4;" horiz-adv-x="642" d="M-44 0L387 700H446L583 0H538L492 237H152L7 0H-44ZM177 278H484L410 659L177 278ZM367 811Q354 811 344 821T334 846Q334 863 346 875T375 887Q389 887 398 877T408 853Q408 835 396 823T367 811ZM524 811Q511
811 501 821T491 846Q491 863 503 875T532 887Q546 887 555 877T565 853Q565 835 553 823T524 811Z" />
<glyph unicode="&#xc5;" horiz-adv-x="642" d="M-44 0L387 700H446L583 0H538L492 237H152L7 0H-44ZM177 278H484L410 659L177 278ZM444 789Q405 789 378 816T350 883Q350 916 365 943T407 986T465 1002Q504 1002 532 975T560 908Q560 875 545 848T503 805T444
789ZM446 822Q480 822 503 847T527 906Q527 932 509 950T464 969Q430 969 407 945T383 885Q383 859 401 841T446 822Z" />
<glyph unicode="&#xc6;" horiz-adv-x="920" d="M-44 0L387 700H983L974 657H454L510 375H775L766 332H518L575 43H847L838 0H538L492 237H152L7 0H-44ZM177 278H484L410 659L177 278Z" />
<glyph unicode="&#xc7;" horiz-adv-x="710" d="M349 -224Q317 -224 289 -212T245 -180L271 -157Q304 -193 349 -193Q386 -193 406 -177T426 -135Q426 -112 407 -101T359 -89H335L373 -10Q286 -5 218 39T109 157T69 320Q69 401 99 471T181 596T300 680T444 711Q527
711 597 680T712 589L678 563Q638 613 578 640T441 668Q373 668 314 641T210 565T140 455T115 322Q115 244 150 178T248 72T397 32Q462 32 524 55T636 123L664 89Q612 43 544 17T405 -11L381 -60Q420 -64 440 -82T460 -130Q460 -158 446 -179T406 -212T349 -224Z"
/>
<glyph unicode="&#xc8;" horiz-adv-x="590" d="M29 0L178 700H653L644 657H214L154 375H435L426 332H145L83 43H517L508 0H29ZM393 804L277 914H342L435 804H393Z" />
<glyph unicode="&#xc9;" horiz-adv-x="590" d="M29 0L178 700H653L644 657H214L154 375H435L426 332H145L83 43H517L508 0H29ZM386 804L503 914H571L432 804H386Z" />
<glyph unicode="&#xca;" horiz-adv-x="590" d="M29 0L178 700H653L644 657H214L154 375H435L426 332H145L83 43H517L508 0H29ZM290 799L412 914H464L536 799H501L434 882L329 799H290Z" />
<glyph unicode="&#xcb;" horiz-adv-x="590" d="M29 0L178 700H653L644 657H214L154 375H435L426 332H145L83 43H517L508 0H29ZM341 811Q328 811 318 821T308 846Q308 863 320 875T349 887Q363 887 372 877T382 853Q382 835 370 823T341 811ZM498 811Q485 811 475
821T465 846Q465 863 477 875T506 887Q520 887 529 877T539 853Q539 835 527 823T498 811Z" />
<glyph unicode="&#xcc;" horiz-adv-x="207" d="M29 0L178 700H223L74 0H29ZM202 804L86 914H151L244 804H202Z" />
<glyph unicode="&#xcd;" horiz-adv-x="207" d="M29 0L178 700H223L74 0H29ZM195 804L312 914H380L241 804H195Z" />
<glyph unicode="&#xce;" horiz-adv-x="207" d="M29 0L178 700H223L74 0H29ZM99 799L221 914H273L345 799H310L243 882L138 799H99Z" />
<glyph unicode="&#xcf;" horiz-adv-x="207" d="M29 0L178 700H223L74 0H29ZM150 811Q137 811 127 821T117 846Q117 863 129 875T158 887Q172 887 181 877T191 853Q191 835 179 823T150 811ZM307 811Q294 811 284 821T274 846Q274 863 286 875T315 887Q329 887
338 877T348 853Q348 835 336 823T307 811Z" />
<glyph unicode="&#xd0;" horiz-adv-x="699" d="M29 0L100 334H30L38 375H109L178 700H363Q435 700 493 679T592 617T656 519T678 392Q678 309 647 238T560 114T429 30T267 0H29ZM83 43H275Q349 43 414 70T528 145T604 257T632 394Q632 474 599 533T506 624T365
657H214L154 375H356L348 334H145L83 43Z" />
<glyph unicode="&#xd1;" horiz-adv-x="699" d="M29 0L178 700H223L539 76L672 700H715L566 0H531L208 638L72 0H29ZM355 806L318 816Q357 897 410 897Q437 897 460 883T505 854T548 840Q565 840 576 852T601 893L638 883Q619 840 596 821T544 802Q518 802 495
816T450 844T407 858Q391 858 379 846T355 806Z" />
<glyph unicode="&#xd2;" horiz-adv-x="793" d="M388 -11Q319 -11 261 13T160 82T92 185T68 314Q68 394 98 466T182 593T304 679T450 711Q519 711 577 687T678 618T746 515T770 386Q770 307 740 236T657 109T535 21T388 -11ZM391 32Q460 32 520 60T626 137T698
249T724 384Q724 461 690 525T594 629T447 668Q378 668 318 640T212 563T140 451T114 316Q114 239 148 175T244 71T391 32ZM495 804L379 914H444L537 804H495Z" />
<glyph unicode="&#xd3;" horiz-adv-x="793" d="M388 -11Q319 -11 261 13T160 82T92 185T68 314Q68 394 98 466T182 593T304 679T450 711Q519 711 577 687T678 618T746 515T770 386Q770 307 740 236T657 109T535 21T388 -11ZM391 32Q460 32 520 60T626 137T698
249T724 384Q724 461 690 525T594 629T447 668Q378 668 318 640T212 563T140 451T114 316Q114 239 148 175T244 71T391 32ZM488 804L605 914H673L534 804H488Z" />
<glyph unicode="&#xd4;" horiz-adv-x="793" d="M388 -11Q319 -11 261 13T160 82T92 185T68 314Q68 394 98 466T182 593T304 679T450 711Q519 711 577 687T678 618T746 515T770 386Q770 307 740 236T657 109T535 21T388 -11ZM391 32Q460 32 520 60T626 137T698
249T724 384Q724 461 690 525T594 629T447 668Q378 668 318 640T212 563T140 451T114 316Q114 239 148 175T244 71T391 32ZM392 799L514 914H566L638 799H603L536 882L431 799H392Z" />
<glyph unicode="&#xd5;" horiz-adv-x="793" d="M388 -11Q319 -11 261 13T160 82T92 185T68 314Q68 394 98 466T182 593T304 679T450 711Q519 711 577 687T678 618T746 515T770 386Q770 307 740 236T657 109T535 21T388 -11ZM391 32Q460 32 520 60T626 137T698
249T724 384Q724 461 690 525T594 629T447 668Q378 668 318 640T212 563T140 451T114 316Q114 239 148 175T244 71T391 32ZM402 806L365 816Q404 897 457 897Q484 897 507 883T552 854T595 840Q612 840 623 852T648 893L685 883Q666 840 643 821T591 802Q565 802
542 816T497 844T454 858Q438 858 426 846T402 806Z" />
<glyph unicode="&#xd6;" horiz-adv-x="793" d="M388 -11Q319 -11 261 13T160 82T92 185T68 314Q68 394 98 466T182 593T304 679T450 711Q519 711 577 687T678 618T746 515T770 386Q770 307 740 236T657 109T535 21T388 -11ZM391 32Q460 32 520 60T626 137T698
249T724 384Q724 461 690 525T594 629T447 668Q378 668 318 640T212 563T140 451T114 316Q114 239 148 175T244 71T391 32ZM443 811Q430 811 420 821T410 846Q410 863 422 875T451 887Q465 887 474 877T484 853Q484 835 472 823T443 811ZM600 811Q587 811 577 821T567
846Q567 863 579 875T608 887Q622 887 631 877T641 853Q641 835 629 823T600 811Z" />
<glyph unicode="&#xd7;" horiz-adv-x="600" d="M137 174L111 204L296 362L181 522L214 546L327 389L511 546L537 516L351 357L465 198L432 174L319 330L137 174Z" />
<glyph unicode="&#xd8;" horiz-adv-x="793" d="M388 -11Q323 -11 267 11T169 73L94 0H31L139 106Q105 147 87 200T68 314Q68 394 98 466T182 593T304 679T450 711Q515 711 571 689T669 627L744 700H807L699 594Q733 553 751 500T770 386Q770 307 740 236T657 109T535
21T388 -11ZM171 137L638 596Q602 629 554 648T447 668Q378 668 318 640T212 563T140 451T114 316Q114 266 128 221T171 137ZM391 32Q460 32 520 60T626 137T698 249T724 384Q724 434 710 480T667 563L200 104Q236 71 284 52T391 32Z" />
<glyph unicode="&#xd9;" horiz-adv-x="680" d="M314 -11Q233 -11 172 25T84 129T77 292L164 700H209L123 297Q105 212 125 153T194 63T313 32Q414 32 483 101T579 295L665 700H710L624 295Q604 199 562 131T458 26T314 -11ZM438 804L322 914H387L480 804H438Z" />
<glyph unicode="&#xda;" horiz-adv-x="680" d="M314 -11Q233 -11 172 25T84 129T77 292L164 700H209L123 297Q105 212 125 153T194 63T313 32Q414 32 483 101T579 295L665 700H710L624 295Q604 199 562 131T458 26T314 -11ZM431 804L548 914H616L477 804H431Z" />
<glyph unicode="&#xdb;" horiz-adv-x="680" d="M314 -11Q233 -11 172 25T84 129T77 292L164 700H209L123 297Q105 212 125 153T194 63T313 32Q414 32 483 101T579 295L665 700H710L624 295Q604 199 562 131T458 26T314 -11ZM335 799L457 914H509L581 799H546L479
882L374 799H335Z" />
<glyph unicode="&#xdc;" horiz-adv-x="680" d="M314 -11Q233 -11 172 25T84 129T77 292L164 700H209L123 297Q105 212 125 153T194 63T313 32Q414 32 483 101T579 295L665 700H710L624 295Q604 199 562 131T458 26T314 -11ZM386 811Q373 811 363 821T353 846Q353
863 365 875T394 887Q408 887 417 877T427 853Q427 835 415 823T386 811ZM543 811Q530 811 520 821T510 846Q510 863 522 875T551 887Q565 887 574 877T584 853Q584 835 572 823T543 811Z" />
<glyph unicode="&#xdd;" horiz-adv-x="597" d="M223 0L285 292L104 700H152L314 333L631 700H688L329 288L268 0H223ZM390 804L507 914H575L436 804H390Z" />
<glyph unicode="&#xde;" horiz-adv-x="620" d="M29 0L178 700H223L192 555H404Q465 555 509 535T578 476T603 382Q603 319 573 270T488 193T360 164H109L74 0H29ZM118 207H360Q419 207 463 229T532 291T557 380Q557 445 517 478T405 512H183L118 207Z" />
<glyph unicode="&#xdf;" horiz-adv-x="567" d="M352 -10Q296 -10 251 10T180 65L216 89Q235 62 270 47T352 32Q409 32 445 60T482 132Q482 164 465 184T407 222L344 249Q310 264 293 289T275 349Q275 382 291 404T332 443T385 472T438 501T479 537T495 589Q495
621 479 645T436 684T374 698Q293 698 242 653T172 519L61 0H16L128 527Q150 631 213 685T374 740Q421 740 458 720T517 666T539 589Q539 551 523 525T482 481T429 449T376 421T335 390T319 349Q319 326 329 312T362 287L425 260Q478 237 502 207T526 132Q526 91
504 59T442 9T352 -10Z" />
<glyph unicode="&#xe0;" horiz-adv-x="489" d="M187 -10Q112 -10 66 28T20 130Q20 179 45 214T116 269T217 289Q264 289 308 274T384 233L401 314Q416 385 388 424T285 463Q247 463 209 453T124 421L109 459Q160 482 201 492T281 502Q339 502 380 482T440 421T445
318L377 0H334L343 43Q309 18 270 4T187 -10ZM195 29Q241 29 280 45T354 92L375 192Q314 251 213 251Q148 251 106 220T63 132Q63 87 96 58T195 29ZM539 596L423 706H488L581 596H539Z" />
<glyph unicode="&#xe1;" horiz-adv-x="489" d="M187 -10Q112 -10 66 28T20 130Q20 179 45 214T116 269T217 289Q264 289 308 274T384 233L401 314Q416 385 388 424T285 463Q247 463 209 453T124 421L109 459Q160 482 201 492T281 502Q339 502 380 482T440 421T445
318L377 0H334L343 43Q309 18 270 4T187 -10ZM195 29Q241 29 280 45T354 92L375 192Q314 251 213 251Q148 251 106 220T63 132Q63 87 96 58T195 29ZM532 596L649 706H717L578 596H532Z" />
<glyph unicode="&#xe2;" horiz-adv-x="489" d="M187 -10Q112 -10 66 28T20 130Q20 179 45 214T116 269T217 289Q264 289 308 274T384 233L401 314Q416 385 388 424T285 463Q247 463 209 453T124 421L109 459Q160 482 201 492T281 502Q339 502 380 482T440 421T445
318L377 0H334L343 43Q309 18 270 4T187 -10ZM195 29Q241 29 280 45T354 92L375 192Q314 251 213 251Q148 251 106 220T63 132Q63 87 96 58T195 29ZM436 591L558 706H610L682 591H647L580 674L475 591H436Z" />
<glyph unicode="&#xe3;" horiz-adv-x="489" d="M187 -10Q112 -10 66 28T20 130Q20 179 45 214T116 269T217 289Q264 289 308 274T384 233L401 314Q416 385 388 424T285 463Q247 463 209 453T124 421L109 459Q160 482 201 492T281 502Q339 502 380 482T440 421T445
318L377 0H334L343 43Q309 18 270 4T187 -10ZM195 29Q241 29 280 45T354 92L375 192Q314 251 213 251Q148 251 106 220T63 132Q63 87 96 58T195 29ZM446 598L409 608Q448 689 501 689Q528 689 551 675T596 646T639 632Q656 632 667 644T692 685L729 675Q710 632
687 613T635 594Q609 594 586 608T541 636T498 650Q482 650 470 638T446 598Z" />
<glyph unicode="&#xe4;" horiz-adv-x="489" d="M187 -10Q112 -10 66 28T20 130Q20 179 45 214T116 269T217 289Q264 289 308 274T384 233L401 314Q416 385 388 424T285 463Q247 463 209 453T124 421L109 459Q160 482 201 492T281 502Q339 502 380 482T440 421T445
318L377 0H334L343 43Q309 18 270 4T187 -10ZM195 29Q241 29 280 45T354 92L375 192Q314 251 213 251Q148 251 106 220T63 132Q63 87 96 58T195 29ZM487 603Q474 603 464 613T454 638Q454 655 466 667T495 679Q509 679 518 669T528 645Q528 627 516 615T487 603ZM644
603Q631 603 621 613T611 638Q611 655 623 667T652 679Q666 679 675 669T685 645Q685 627 673 615T644 603Z" />
<glyph unicode="&#xe5;" horiz-adv-x="489" d="M187 -10Q112 -10 66 28T20 130Q20 179 45 214T116 269T217 289Q264 289 308 274T384 233L401 314Q416 385 388 424T285 463Q247 463 209 453T124 421L109 459Q160 482 201 492T281 502Q339 502 380 482T440 421T445
318L377 0H334L343 43Q309 18 270 4T187 -10ZM195 29Q241 29 280 45T354 92L375 192Q314 251 213 251Q148 251 106 220T63 132Q63 87 96 58T195 29ZM564 581Q525 581 498 608T470 675Q470 708 485 735T527 778T585 794Q624 794 652 767T680 700Q680 667 665 640T623
597T564 581ZM566 614Q600 614 623 639T647 698Q647 724 629 742T584 761Q550 761 527 737T503 677Q503 651 521 633T566 614Z" />
<glyph unicode="&#xe6;" horiz-adv-x="866" d="M187 -10Q112 -10 66 28T20 130Q20 179 45 214T116 269T217 289Q303 289 367 245L381 314Q395 385 368 424T267 463Q229 463 191 453T106 421L91 459Q142 482 183 492T263 502Q328 502 371 476T425 395Q462 444 515
473T631 502Q689 502 733 473T802 394T827 280Q827 275 826 258T824 234H412Q410 176 432 130T496 58T590 32Q629 32 666 44T737 76L761 40Q724 16 679 3T588 -10Q533 -10 486 16T409 85Q363 38 306 14T187 -10ZM418 276H784Q787 326 768 367T713 434T627 460Q577
460 534 436T460 371T418 276ZM195 29Q251 29 299 52T391 117Q382 135 377 155T369 198Q339 224 300 237T213 251Q148 251 106 220T63 132Q63 87 96 58T195 29Z" />
<glyph unicode="&#xe7;" horiz-adv-x="493" d="M216 -224Q184 -224 156 -212T112 -180L138 -157Q171 -193 216 -193Q253 -193 273 -177T293 -135Q293 -112 274 -101T226 -89H202L241 -9Q185 -4 140 26T69 107T43 219Q43 276 64 327T123 417T209 479T312 502Q364
502 413 477T495 407L462 378Q435 416 395 438T308 460Q264 460 225 441T154 388T105 311T87 219Q87 166 109 124T172 57T262 32Q297 32 334 46T411 88L437 52Q357 -5 272 -10L248 -60Q287 -64 307 -82T327 -130Q327 -158 313 -179T273 -212T216 -224Z" />
<glyph unicode="&#xe8;" horiz-adv-x="539" d="M263 -10Q203 -10 153 20T73 103T43 219Q43 278 63 329T120 419T204 480T306 502Q364 502 408 473T477 394T502 280Q502 275 501 258T499 234H87Q85 176 107 130T171 58T265 32Q304 32 341 44T412 76L436 40Q399
16 354 3T263 -10ZM93 276H459Q461 326 443 367T388 434T302 460Q251 460 208 436T135 371T93 276ZM565 596L449 706H514L607 596H565Z" />
<glyph unicode="&#xe9;" horiz-adv-x="539" d="M263 -10Q203 -10 153 20T73 103T43 219Q43 278 63 329T120 419T204 480T306 502Q364 502 408 473T477 394T502 280Q502 275 501 258T499 234H87Q85 176 107 130T171 58T265 32Q304 32 341 44T412 76L436 40Q399
16 354 3T263 -10ZM93 276H459Q461 326 443 367T388 434T302 460Q251 460 208 436T135 371T93 276ZM558 596L675 706H743L604 596H558Z" />
<glyph unicode="&#xea;" horiz-adv-x="539" d="M263 -10Q203 -10 153 20T73 103T43 219Q43 278 63 329T120 419T204 480T306 502Q364 502 408 473T477 394T502 280Q502 275 501 258T499 234H87Q85 176 107 130T171 58T265 32Q304 32 341 44T412 76L436 40Q399
16 354 3T263 -10ZM93 276H459Q461 326 443 367T388 434T302 460Q251 460 208 436T135 371T93 276ZM462 591L584 706H636L708 591H673L606 674L501 591H462Z" />
<glyph unicode="&#xeb;" horiz-adv-x="539" d="M263 -10Q203 -10 153 20T73 103T43 219Q43 278 63 329T120 419T204 480T306 502Q364 502 408 473T477 394T502 280Q502 275 501 258T499 234H87Q85 176 107 130T171 58T265 32Q304 32 341 44T412 76L436 40Q399
16 354 3T263 -10ZM93 276H459Q461 326 443 367T388 434T302 460Q251 460 208 436T135 371T93 276ZM513 603Q500 603 490 613T480 638Q480 655 492 667T521 679Q535 679 544 669T554 645Q554 627 542 615T513 603ZM670 603Q657 603 647 613T637 638Q637 655 649
667T678 679Q692 679 701 669T711 645Q711 627 699 615T670 603Z" />
<glyph unicode="&#xec;" horiz-adv-x="178" d="M16 0L121 492H164L59 0H16ZM143 596L27 706H92L185 596H143Z" />
<glyph unicode="&#xed;" horiz-adv-x="178" d="M16 0L121 492H164L59 0H16ZM136 596L253 706H321L182 596H136Z" />
<glyph unicode="&#xee;" horiz-adv-x="178" d="M16 0L121 492H164L59 0H16ZM40 591L162 706H214L286 591H251L184 674L79 591H40Z" />
<glyph unicode="&#xef;" horiz-adv-x="178" d="M16 0L121 492H164L59 0H16ZM91 603Q78 603 68 613T58 638Q58 655 70 667T99 679Q113 679 122 669T132 645Q132 627 120 615T91 603ZM248 603Q235 603 225 613T215 638Q215 655 227 667T256 679Q270 679 279 669T289
645Q289 627 277 615T248 603Z" />
<glyph unicode="&#xf0;" horiz-adv-x="591" d="M260 -10Q196 -10 147 19T71 99T44 212Q44 270 64 321T121 411T206 472T311 494Q381 494 435 457T509 351Q512 422 496 482T443 589L328 536L314 574L416 621Q395 640 369 656T317 683L334 717Q405 689 454 639L586
700L600 662L481 607Q550 513 550 385Q550 296 530 223T471 98T379 18T260 -10ZM263 32Q323 32 373 64T454 151T485 270Q485 322 464 363T403 428T310 452Q250 452 200 420T119 333T88 214Q88 163 109 122T170 56T263 32Z" />
<glyph unicode="&#xf1;" horiz-adv-x="519" d="M16 0L121 492H164L152 434Q217 502 308 502Q364 502 404 477T461 405T466 297L403 0H360L422 291Q439 369 405 415T300 461Q253 461 211 440T140 380L59 0H16ZM476 598L439 608Q478 689 531 689Q558 689 581 675T626
646T669 632Q686 632 697 644T722 685L759 675Q740 632 717 613T665 594Q639 594 616 608T571 636T528 650Q512 650 500 638T476 598Z" />
<glyph unicode="&#xf2;" horiz-adv-x="569" d="M258 -10Q198 -10 149 20T72 103T43 219Q43 276 64 327T123 417T209 479T312 502Q373 502 421 472T498 389T527 273Q527 216 506 165T448 74T362 13T258 -10ZM262 32Q306 32 345 51T416 104T465 181T483 273Q483
327 461 369T399 435T308 460Q264 460 225 441T154 388T105 311T87 219Q87 166 109 124T172 57T262 32ZM577 596L461 706H526L619 596H577Z" />
<glyph unicode="&#xf3;" horiz-adv-x="569" d="M258 -10Q198 -10 149 20T72 103T43 219Q43 276 64 327T123 417T209 479T312 502Q373 502 421 472T498 389T527 273Q527 216 506 165T448 74T362 13T258 -10ZM262 32Q306 32 345 51T416 104T465 181T483 273Q483
327 461 369T399 435T308 460Q264 460 225 441T154 388T105 311T87 219Q87 166 109 124T172 57T262 32ZM570 596L687 706H755L616 596H570Z" />
<glyph unicode="&#xf4;" horiz-adv-x="569" d="M258 -10Q198 -10 149 20T72 103T43 219Q43 276 64 327T123 417T209 479T312 502Q373 502 421 472T498 389T527 273Q527 216 506 165T448 74T362 13T258 -10ZM262 32Q306 32 345 51T416 104T465 181T483 273Q483
327 461 369T399 435T308 460Q264 460 225 441T154 388T105 311T87 219Q87 166 109 124T172 57T262 32ZM474 591L596 706H648L720 591H685L618 674L513 591H474Z" />
<glyph unicode="&#xf5;" horiz-adv-x="569" d="M258 -10Q198 -10 149 20T72 103T43 219Q43 276 64 327T123 417T209 479T312 502Q373 502 421 472T498 389T527 273Q527 216 506 165T448 74T362 13T258 -10ZM262 32Q306 32 345 51T416 104T465 181T483 273Q483
327 461 369T399 435T308 460Q264 460 225 441T154 388T105 311T87 219Q87 166 109 124T172 57T262 32ZM484 598L447 608Q486 689 539 689Q566 689 589 675T634 646T677 632Q694 632 705 644T730 685L767 675Q748 632 725 613T673 594Q647 594 624 608T579 636T536
650Q520 650 508 638T484 598Z" />
<glyph unicode="&#xf6;" horiz-adv-x="569" d="M258 -10Q198 -10 149 20T72 103T43 219Q43 276 64 327T123 417T209 479T312 502Q373 502 421 472T498 389T527 273Q527 216 506 165T448 74T362 13T258 -10ZM262 32Q306 32 345 51T416 104T465 181T483 273Q483
327 461 369T399 435T308 460Q264 460 225 441T154 388T105 311T87 219Q87 166 109 124T172 57T262 32ZM525 603Q512 603 502 613T492 638Q492 655 504 667T533 679Q547 679 556 669T566 645Q566 627 554 615T525 603ZM682 603Q669 603 659 613T649 638Q649 655
661 667T690 679Q704 679 713 669T723 645Q723 627 711 615T682 603Z" />
<glyph unicode="&#xf7;" horiz-adv-x="600" d="M132 337L140 378H517L509 337H132ZM282 147Q269 147 259 157T249 181Q249 198 261 210T290 222Q304 222 313 212T323 188Q323 171 311 159T282 147ZM356 492Q343 492 333 502T323 525Q323 542 335 554T364 566Q378
566 387 557T397 533Q397 516 385 504T356 492Z" />
<glyph unicode="&#xf8;" horiz-adv-x="568" d="M258 -10Q215 -10 178 6T111 50L60 0H4L86 80Q66 109 55 144T43 219Q43 276 64 327T123 417T209 479T312 502Q355 502 392 487T458 442L509 492H566L484 412Q504 384 515 349T527 273Q527 216 506 165T448 74T362
13T258 -10ZM117 110L427 413Q405 435 374 447T308 460Q264 460 225 441T154 388T105 311T87 219Q87 188 95 161T117 110ZM262 32Q306 32 345 51T416 104T465 181T483 273Q483 304 475 332T453 382L142 80Q165 58 195 45T262 32Z" />
<glyph unicode="&#xf9;" horiz-adv-x="519" d="M212 -10Q157 -10 117 15T59 87T55 195L117 492H160L98 202Q82 124 116 78T220 31Q267 31 309 53T380 113L461 492H504L399 0H356L368 58Q302 -10 212 -10ZM569 596L453 706H518L611 596H569Z" />
<glyph unicode="&#xfa;" horiz-adv-x="519" d="M212 -10Q157 -10 117 15T59 87T55 195L117 492H160L98 202Q82 124 116 78T220 31Q267 31 309 53T380 113L461 492H504L399 0H356L368 58Q302 -10 212 -10ZM562 596L679 706H747L608 596H562Z" />
<glyph unicode="&#xfb;" horiz-adv-x="519" d="M212 -10Q157 -10 117 15T59 87T55 195L117 492H160L98 202Q82 124 116 78T220 31Q267 31 309 53T380 113L461 492H504L399 0H356L368 58Q302 -10 212 -10ZM466 591L588 706H640L712 591H677L610 674L505 591H466Z" />
<glyph unicode="&#xfc;" horiz-adv-x="519" d="M212 -10Q157 -10 117 15T59 87T55 195L117 492H160L98 202Q82 124 116 78T220 31Q267 31 309 53T380 113L461 492H504L399 0H356L368 58Q302 -10 212 -10ZM517 603Q504 603 494 613T484 638Q484 655 496 667T525
679Q539 679 548 669T558 645Q558 627 546 615T517 603ZM674 603Q661 603 651 613T641 638Q641 655 653 667T682 679Q696 679 705 669T715 645Q715 627 703 615T674 603Z" />
<glyph unicode="&#xfd;" horiz-adv-x="471" d="M-17 -214Q-26 -214 -37 -213T-61 -208L-52 -164Q-44 -167 -33 -168T-11 -170Q20 -170 47 -151T99 -93L159 2L60 492H105L193 54L468 492H517L145 -98Q106 -159 68 -186T-17 -214ZM538 596L655 706H723L584 596H538Z" />
<glyph unicode="&#xfe;" horiz-adv-x="560" d="M-27 -204L165 700L210 711L156 452Q223 502 302 502Q365 502 413 473T490 392T518 274Q518 216 497 165T439 74T354 12T249 -10Q195 -10 150 12T75 72L16 -204H-27ZM295 460Q253 460 214 444T143 397L86 126Q105
85 150 59T248 32Q311 32 362 64T443 150T474 271Q474 327 451 369T388 436T295 460Z" />
<glyph unicode="&#xff;" horiz-adv-x="471" d="M-17 -214Q-26 -214 -37 -213T-61 -208L-52 -164Q-44 -167 -33 -168T-11 -170Q20 -170 47 -151T99 -93L159 2L60 492H105L193 54L468 492H517L145 -98Q106 -159 68 -186T-17 -214ZM493 603Q480 603 470 613T460 638Q460
655 472 667T501 679Q515 679 524 669T534 645Q534 627 522 615T493 603ZM650 603Q637 603 627 613T617 638Q617 655 629 667T658 679Q672 679 681 669T691 645Q691 627 679 615T650 603Z" />
<glyph unicode="&#x2013;" horiz-adv-x="532" d="M64 302H492L483 258H55L64 302Z" />
<glyph unicode="&#x2014;" horiz-adv-x="678" d="M64 302H639L630 258H55L64 302Z" />
<glyph unicode="&#x2018;" horiz-adv-x="250" d="M285 709L194 521H141L247 709H285Z" />
<glyph unicode="&#x2019;" horiz-adv-x="250" d="M133 521L224 709H277L171 521H133Z" />
<glyph unicode="&#x201a;" horiz-adv-x="250" d="M-16 -131L75 57H128L22 -131H-16Z" />
<glyph unicode="&#x201c;" horiz-adv-x="360" d="M285 709L194 521H141L247 709H285ZM395 709L304 521H251L357 709H395Z" />
<glyph unicode="&#x201d;" horiz-adv-x="360" d="M251 521L342 709H395L289 521H251ZM141 521L232 709H285L179 521H141Z" />
<glyph unicode="&#x201e;" horiz-adv-x="360" d="M94 -131L185 57H238L132 -131H94ZM-16 -131L75 57H128L22 -131H-16Z" />
<glyph unicode="&#x2022;" horiz-adv-x="311" d="M171 267Q137 267 113 291T89 350Q89 380 102 404T139 442T190 457Q224 457 248 433T272 374Q272 345 259 321T222 282T171 267Z" />
<glyph unicode="&#x2039;" horiz-adv-x="363" d="M364 492L84 242L255 0H209L35 246L310 492H364Z" />
<glyph unicode="&#x203a;" horiz-adv-x="364" d="M0 0L280 250L109 492H155L329 246L54 0H0Z" />
</font>
</defs>
</svg>
