<?xml version="1.0" standalone="no"?>
<!DOCTYPE svg PUBLIC "-//W3C//DTD SVG 1.1//EN" "http://www.w3.org/Graphics/SVG/1.1/DTD/svg11.dtd">
<svg xmlns="http://www.w3.org/2000/svg">
<defs >
<font id="RedHatDisplay" horiz-adv-x="518" ><font-face
    font-family="Red Hat Display SemiBold"
    units-per-em="1000"
    panose-1="2 1 3 3 4 2 1 13 3 3"
    ascent="1018"
    descent="-305"
    alphabetic="0" />
<glyph unicode=" " horiz-adv-x="209" />
<glyph unicode="!" horiz-adv-x="210" d="M56 200L151 704H252L133 200H56ZM56 -7Q32 -7 16 9T0 48Q0 67 10 83T36 109T71 119Q95 119 110 103T125 63Q125 45 116 29T90 3T56 -7Z" />
<glyph unicode="&quot;" horiz-adv-x="365" d="M113 467L151 702H248L184 467H113ZM264 467L302 702H399L335 467H264Z" />
<glyph unicode="#" horiz-adv-x="697" d="M7 0L110 209H7L22 283H146L212 417H100L116 491H248L351 700H442L339 491H513L616 700H705L602 491H706L690 417H566L500 283H612L596 209H464L361 0H271L374 209H200L97 0H7ZM237 283H411L476 417H302L237 283Z" />
<glyph unicode="$" horiz-adv-x="569" d="M183 -67L202 22Q139 33 86 65T-10 148L57 213Q126 127 219 105L265 317L219 329Q148 349 113 388T77 487Q77 548 107 592T194 661T326 685H342L360 767H415L396 679Q452 669 502 644T594 581L531 512Q462 577 379 596L337
395L363 389Q453 365 493 328T533 227Q533 164 500 117T408 44T268 17H256L238 -67H183ZM283 405L325 603H315Q250 603 210 575T169 499Q169 467 191 446T263 411L283 405ZM273 99Q324 100 361 114T418 154T438 213Q438 237 427 253T389 283T318 308L273 99Z" />
<glyph unicode="%" horiz-adv-x="778" d="M208 345Q149 345 114 383T78 484Q78 545 102 595T167 675T257 705Q317 705 352 667T387 566Q387 505 363 455T299 375T208 345ZM215 402Q245 402 270 424T310 483T325 563Q325 603 305 626T249 649Q221 649 196 627T156
568T141 488Q141 448 161 425T215 402ZM102 0L637 700H713L176 0H102ZM561 -5Q501 -5 466 33T430 134Q430 195 454 245T519 325T608 355Q669 355 704 318T739 216Q739 156 715 106T651 25T561 -5ZM567 52Q597 52 622 74T662 133T677 213Q677 253 657 276T602 299Q573
299 548 277T508 218T493 138Q493 98 513 75T567 52Z" />
<glyph unicode="&amp;" horiz-adv-x="652" d="M601 56L535 -12Q514 4 493 24T450 66Q403 28 350 9T239 -11Q171 -11 120 12T41 75T13 171Q13 220 32 258T93 330T204 395Q186 429 178 458T170 519Q170 574 195 617T264 685T364 710Q410 710 445 693T501 646T521
575Q521 520 487 477T381 397L325 370Q355 323 389 279T460 193Q488 227 513 269T558 361L641 339Q615 277 584 226T517 134Q539 112 559 93T601 56ZM260 529Q260 506 267 484T289 432L345 459Q388 481 408 506T429 563Q429 595 410 615T356 635Q328 635 307 622T273
585T260 529ZM107 186Q107 134 146 102T250 70Q288 70 325 84T395 124Q356 168 318 219T240 330Q193 309 164 287T121 240T107 186Z" />
<glyph unicode="&apos;" horiz-adv-x="211" d="M113 467L151 702H248L184 467H113Z" />
<glyph unicode="(" horiz-adv-x="390" d="M210 -215Q129 -152 87 -62T45 141Q45 264 88 375T212 573T401 711L441 642Q373 610 318 559T222 442T161 303T139 150Q139 53 174 -24T275 -155L210 -215Z" />
<glyph unicode=")" horiz-adv-x="390" d="M181 713Q262 651 304 561T346 358Q346 234 303 124T179 -74T-10 -213L-50 -143Q18 -111 73 -60T169 56T231 195T253 349Q253 446 218 523T116 653L181 713Z" />
<glyph unicode="*" horiz-adv-x="449" d="M207 331L236 461L114 398L88 459L220 522L120 600L166 652L261 575L286 700H352L324 574L445 635L472 575L341 512L442 436L394 382L300 459L275 331H207Z" />
<glyph unicode="+" horiz-adv-x="599" d="M238 139L276 317H109L126 396H292L331 574H409L371 396H537L520 317H354L316 139H238Z" />
<glyph unicode="," horiz-adv-x="250" d="M-56 -143L55 90H159L20 -143H-56Z" />
<glyph unicode="-" horiz-adv-x="443" d="M60 326H413L395 239H41L60 326Z" />
<glyph unicode="." horiz-adv-x="250" d="M76 -7Q52 -7 36 9T20 48Q20 67 30 83T56 109T91 119Q115 119 130 103T146 63Q146 45 136 29T111 3T76 -7Z" />
<glyph unicode="/" horiz-adv-x="475" d="M-166 -206L440 700H544L-63 -206H-166Z" />
<glyph unicode="0" horiz-adv-x="662" d="M304 -11Q229 -11 172 23T84 120T53 265Q53 357 80 437T155 579T265 676T398 711Q474 711 530 677T618 581T650 435Q650 344 623 264T548 121T438 24T304 -11ZM315 76Q364 76 407 104T483 182T534 295T553 432Q553 522
509 573T388 625Q339 625 296 597T220 519T168 406T149 268Q149 179 193 128T315 76Z" />
<glyph unicode="1" horiz-adv-x="308" d="M93 0L221 597L86 544L104 632L277 700H340L191 0H93Z" />
<glyph unicode="2" horiz-adv-x="544" d="M245 0L260 70L625 396Q667 433 685 465T704 532Q704 574 671 600T585 626Q542 626 500 608T402 548L361 619Q421 664 480 687T599 710Q658 710 703 690T773 632T798 544Q798 508 787 476T751 413T684 345L390 82L722
83L704 0H245Z" />
<glyph unicode="3" horiz-adv-x="585" d="M516 -11Q437 -11 373 22T264 117L335 173Q375 120 421 97T522 74Q570 74 605 90T661 137T681 205Q681 252 647 283T551 314H489L507 395H582Q622 395 654 411T705 455T724 517Q724 562 690 593T592 625Q544 625 502 610T417
559L368 625Q414 667 472 689T595 711Q667 711 717 687T794 622T821 532Q821 469 782 420T662 348Q716 331 745 293T775 204Q775 143 742 94T650 17T516 -11Z" />
<glyph unicode="4" horiz-adv-x="628" d="M361 0L399 178H9L26 257L498 700H607L514 262H597L580 178H496L458 0H361ZM146 262H417L484 580L146 262Z" />
<glyph unicode="5" horiz-adv-x="571" d="M507 -10Q432 -10 369 19T265 102L331 163Q370 116 414 94T513 72Q562 72 600 93T661 150T683 232Q683 291 643 325T534 360Q505 360 475 353T409 330L345 357L432 700H843L825 617H499L445 410Q479 424 508 429T567 435Q632
435 680 412T754 345T780 244Q780 173 744 116T646 24T507 -10Z" />
<glyph unicode="6" horiz-adv-x="613" d="M309 -11Q240 -11 184 23T95 121T61 275Q61 373 88 453T165 590T278 679T415 711Q475 711 523 693T612 641L556 567Q521 597 486 611T412 625Q349 625 296 590T206 491T158 341Q198 387 248 411T353 436Q417 436 465 410T540
339T567 238Q567 183 547 138T490 59T408 7T309 -11ZM318 73Q362 73 397 93T452 150T472 231Q472 270 455 298T406 343T331 360Q283 360 237 340T154 280Q156 214 177 168T234 97T318 73Z" />
<glyph unicode="7" horiz-adv-x="563" d="M300 0L762 615H358L377 700H887L871 627L415 0H300Z" />
<glyph unicode="8" horiz-adv-x="610" d="M281 -10Q209 -10 154 15T68 83T37 180Q37 227 60 266T124 334T220 375Q176 395 152 430T128 508Q128 568 161 614T250 685T372 711Q440 711 487 688T561 625T587 537Q587 495 568 459T513 397T429 357Q481 336 513 296T545
202Q545 140 510 92T414 17T281 -10ZM351 403Q390 403 422 419T473 464T493 527Q493 557 479 581T436 619T364 633Q325 633 293 617T241 572T221 508Q221 478 237 454T283 417T351 403ZM289 68Q337 68 373 85T429 133T450 203Q450 237 431 265T378 309T297 326Q249
326 212 309T155 262T134 193Q134 158 153 130T207 85T289 68Z" />
<glyph unicode="9" horiz-adv-x="613" d="M343 711Q411 711 467 677T556 579T590 425Q590 328 563 248T486 110T373 21T236 -11Q177 -11 129 7T39 59L95 133Q132 103 167 89T239 75Q302 75 355 110T446 210T493 359Q453 314 403 289T298 264Q235 264 187 290T112
361T85 462Q85 517 105 562T161 641T244 693T343 711ZM333 627Q290 627 255 607T200 550T179 469Q179 431 196 402T245 357T321 340Q369 340 415 361T497 420Q497 486 476 532T418 603T333 627Z" />
<glyph unicode=":" horiz-adv-x="250" d="M77 -7Q53 -7 37 9T21 48Q21 67 31 83T57 109T92 119Q116 119 131 103T147 63Q147 45 137 29T112 3T77 -7ZM162 393Q138 393 122 409T106 448Q106 467 116 483T142 509T177 519Q201 519 216 503T232 463Q232 445 222 429T197
403T162 393Z" />
<glyph unicode=";" horiz-adv-x="250" d="M168 393Q144 393 128 409T112 448Q112 467 122 483T148 509T183 519Q207 519 222 503T238 463Q238 445 228 429T203 403T168 393ZM-56 -143L55 90H159L20 -143H-56Z" />
<glyph unicode="&lt;" horiz-adv-x="599" d="M404 85L131 348L509 611L551 546L252 343L464 144L404 85Z" />
<glyph unicode="=" horiz-adv-x="600" d="M347 484L364 563H774L757 484H347ZM128 402L145 481H555L538 402H128Z" />
<glyph unicode="&gt;" horiz-adv-x="600" d="M240 611L513 348L135 85L93 151L392 354L180 553L240 611Z" />
<glyph unicode="?" horiz-adv-x="504" d="M169 205Q176 253 189 286T227 345T287 391L350 428Q389 451 410 480T432 538Q432 577 400 600T314 624Q270 624 228 604T152 546L85 591Q133 647 196 679T328 711Q387 711 432 691T504 635T530 552Q530 495 497 450T389
361L337 331Q298 310 279 281T252 205H169ZM173 -7Q150 -7 134 9T118 48Q118 67 128 83T153 109T188 119Q213 119 228 103T244 63Q244 45 234 29T208 3T173 -7Z" />
<glyph unicode="@" horiz-adv-x="773" d="M399 -144Q321 -144 255 -118T140 -44T63 68T36 207Q36 286 63 354T139 472T254 550T397 578Q469 578 530 555T636 491T707 394T733 273Q733 209 710 159T645 81T551 52Q481 52 453 93Q404 50 348 50Q307 50 274 70T222
124T203 202Q203 252 226 293T289 358T376 382Q404 382 429 373T474 346L478 369H551L510 172Q504 140 516 123T559 106Q593 106 619 127T660 185T675 269Q675 343 639 401T539 494T395 528Q332 528 277 504T181 436T117 335T94 211Q94 123 133 55T242 -51T401
-90Q494 -90 569 -52L590 -100Q546 -122 498 -133T399 -144ZM364 109Q406 109 438 140Q436 157 440 180L460 279Q447 299 425 309T377 320Q349 320 326 305T288 265T274 208Q274 164 299 137T364 109Z" />
<glyph unicode="A" horiz-adv-x="687" d="M-53 0L376 700H498L633 0H526L489 205H183L60 0H-53ZM235 292H474L418 598L235 292Z" />
<glyph unicode="B" horiz-adv-x="658" d="M16 0L165 700H442Q535 700 589 657T643 539Q643 478 608 430T514 357Q558 337 583 302T608 221Q608 157 574 107T481 29T345 0H16ZM204 403H396Q459 403 498 436T538 523Q538 564 508 587T426 611H249L204 403ZM137 89H347Q394
89 429 105T484 152T504 220Q504 266 471 292T379 319H186L137 89Z" />
<glyph unicode="C" horiz-adv-x="708" d="M394 -11Q323 -11 262 14T156 84T85 189T60 320Q60 400 90 470T173 594T295 678T444 708Q534 708 605 675T722 577L644 508Q611 558 558 585T439 613Q382 613 332 591T245 529T186 437T165 324Q165 256 196 202T281 116T404
85Q462 85 517 107T615 171L671 100Q614 47 542 18T394 -11Z" />
<glyph unicode="D" horiz-adv-x="713" d="M16 0L165 700H375Q446 700 505 678T606 614T672 515T695 390Q695 309 664 239T576 115T447 31T289 0H16ZM138 94H300Q360 94 412 116T504 179T566 271T589 384Q589 450 561 500T483 578T366 606H247L138 94Z" />
<glyph unicode="E" horiz-adv-x="616" d="M16 0L165 700H671L651 608H248L203 398H467L448 309H184L138 92H545L526 0H16Z" />
<glyph unicode="F" horiz-adv-x="609" d="M16 0L165 700H672L652 608H248L202 393H468L449 304H183L118 0H16Z" />
<glyph unicode="G" horiz-adv-x="776" d="M387 -12Q316 -12 256 13T152 82T82 187T57 316Q57 397 87 468T172 593T296 678T444 709Q533 709 605 674T725 573L645 505Q612 556 557 584T437 613Q380 613 331 591T243 528T184 435T162 321Q162 253 192 200T275 115T395
84Q454 84 504 110T589 181T637 286H408L425 377H760L750 318Q734 222 682 148T554 31T387 -12Z" />
<glyph unicode="H" horiz-adv-x="710" d="M16 0L165 700H267L203 400H568L632 700H735L586 0H483L548 305H183L118 0H16Z" />
<glyph unicode="I" horiz-adv-x="243" d="M16 0L165 700H267L118 0H16Z" />
<glyph unicode="J" horiz-adv-x="605" d="M254 -10Q156 -10 93 41T11 185L106 219Q132 85 253 85Q326 85 377 133T447 268L539 700H643L547 254Q529 171 489 112T389 21T254 -10Z" />
<glyph unicode="K" horiz-adv-x="636" d="M16 0L165 700H267L200 386L595 700H733L300 360L588 0H456L190 340L118 0H16Z" />
<glyph unicode="L" horiz-adv-x="602" d="M16 0L165 700H267L138 93H533L513 0H16Z" />
<glyph unicode="M" horiz-adv-x="844" d="M16 0L165 700H298L418 252L728 700H869L720 0H625L746 571L379 50L234 573L113 0H16Z" />
<glyph unicode="N" horiz-adv-x="720" d="M16 0L165 700H262L535 169L648 700H744L595 0H507L228 546L113 0H16Z" />
<glyph unicode="O" horiz-adv-x="795" d="M391 -11Q320 -11 260 14T154 84T84 189T59 320Q59 400 89 470T172 595T294 680T443 711Q513 711 574 686T680 616T750 511T775 380Q775 300 745 230T662 105T540 20T391 -11ZM398 86Q455 86 504 108T590 170T649 262T671
374Q671 442 641 497T557 583T436 614Q380 614 331 592T244 530T185 438T163 326Q163 258 193 204T277 118T398 86Z" />
<glyph unicode="P" horiz-adv-x="648" d="M16 0L165 700H456Q519 700 565 677T636 613T662 516Q662 449 629 396T539 313T409 282H178L118 0H16ZM197 371H408Q452 371 486 388T539 437T559 507Q559 555 527 581T440 608H248L197 371Z" />
<glyph unicode="Q" horiz-adv-x="794" d="M391 -11Q320 -11 260 14T154 84T84 189T59 320Q59 400 89 470T172 595T294 680T443 711Q513 711 574 686T680 616T750 511T775 380Q775 290 737 212T634 78L688 -13L589 -23L557 30Q521 10 479 0T391 -11ZM398 86Q428
86 456 93T508 114L439 230L537 240L583 164Q623 204 647 258T671 374Q671 442 641 497T557 583T436 614Q380 614 331 592T244 530T185 438T163 326Q163 258 193 204T277 118T398 86Z" />
<glyph unicode="R" horiz-adv-x="646" d="M16 0L165 700H456Q519 700 565 677T636 614T661 517Q661 462 637 416T571 338T473 295L574 0H466L372 287H179L118 0H16ZM198 375H407Q451 375 485 392T538 439T557 508Q557 554 525 581T439 608H248L198 375Z" />
<glyph unicode="S" horiz-adv-x="602" d="M298 -10Q206 -10 128 28T-5 137L66 205Q116 143 176 111T305 78Q354 78 391 93T449 135T470 199Q470 237 441 261T346 302L236 331Q154 353 114 396T73 504Q73 567 104 613T192 684T328 709Q406 709 481 679T614 594L548
519Q496 569 439 595T319 621Q252 621 212 593T172 516Q172 479 198 456T282 418L389 392Q483 369 527 326T572 213Q572 146 538 96T443 18T298 -10Z" />
<glyph unicode="T" horiz-adv-x="619" d="M204 0L333 607H91L112 700H696L676 607H435L306 0H204Z" />
<glyph unicode="U" horiz-adv-x="698" d="M323 -10Q227 -10 164 31T75 145T70 313L152 700H255L171 305Q157 240 172 191T228 114T328 86Q409 86 467 141T545 292L632 700H735L646 285Q626 191 582 125T471 25T323 -10Z" />
<glyph unicode="V" horiz-adv-x="687" d="M230 0L95 700H202L310 103L670 700H781L352 0H230Z" />
<glyph unicode="W" horiz-adv-x="890" d="M126 0L125 700H227L221 167L489 700H587L629 167L849 700H954L656 0H549L508 550L232 0H126Z" />
<glyph unicode="X" horiz-adv-x="650" d="M-55 0L289 366L117 700H233L364 442L604 700H730L408 359L593 0H478L334 283L71 0H-55Z" />
<glyph unicode="Y" horiz-adv-x="654" d="M220 0L279 279L94 700H203L346 371L626 700H749L382 276L324 0H220Z" />
<glyph unicode="Z" horiz-adv-x="597" d="M-32 0L-16 73L502 608H101L120 700H664L647 627L128 92H541L521 0H-32Z" />
<glyph unicode="[" horiz-adv-x="360" d="M-43 -209L150 700H416L399 621H227L67 -130H240L223 -209H-43Z" />
<glyph unicode="\" horiz-adv-x="438" d="M422 -206H325L104 700H201L422 -206Z" />
<glyph unicode="]" horiz-adv-x="360" d="M399 700L205 -209H-61L-44 -130H129L288 621H116L133 700H399Z" />
<glyph unicode="^" horiz-adv-x="600" d="M107 350L356 700H439L537 350H458L382 619L193 350H107Z" />
<glyph unicode="_" horiz-adv-x="477" d="M-88 -153L-73 -80H406L391 -153H-88Z" />
<glyph unicode="`" horiz-adv-x="600" d="M344 603L219 725H337L426 603H344Z" />
<glyph unicode="a" horiz-adv-x="522" d="M186 -6Q108 -6 61 32T13 136Q13 186 38 223T111 281T223 302Q264 302 303 293T376 266L386 312Q399 374 371 404T272 435Q242 435 207 427T123 398L98 475Q153 498 201 508T291 518Q364 518 411 494T477 425T482 316L416
0H319L327 37Q294 15 260 5T186 -6ZM217 67Q251 67 282 77T343 109L361 196Q306 233 227 233Q173 233 140 209T106 144Q106 108 135 88T217 67Z" />
<glyph unicode="b" horiz-adv-x="595" d="M278 -8Q229 -8 187 9T114 59L101 0H5L154 700L256 722L204 478Q264 516 334 516Q399 516 449 486T530 402T560 282Q560 222 538 169T478 77T388 15T278 -8ZM275 79Q329 79 371 105T439 175T464 273Q464 319 445 354T390
410T311 430Q275 430 243 418T183 382L134 151Q154 118 192 99T275 79Z" />
<glyph unicode="c" horiz-adv-x="509" d="M266 -10Q199 -10 146 20T63 104T32 225Q32 285 54 338T116 431T205 495T315 518Q374 518 428 491T515 418L446 355Q420 392 386 410T310 429Q274 429 242 414T184 370T144 307T130 230Q130 187 149 152T202 98T277 78Q312
78 344 91T410 131L459 63Q371 -10 266 -10Z" />
<glyph unicode="d" horiz-adv-x="596" d="M260 -8Q196 -8 145 23T65 107T35 227Q35 287 57 339T117 431T207 493T317 516Q366 516 408 500T481 451L533 700L635 722L482 0H385L391 31Q331 -8 260 -8ZM284 78Q320 78 352 90T411 127L461 360Q441 391 403 410T320
430Q268 430 225 404T157 334T131 235Q131 190 150 154T205 98T284 78Z" />
<glyph unicode="e" horiz-adv-x="562" d="M285 -10Q212 -10 155 21T66 106T34 231Q34 289 55 341T113 433T200 495T305 517Q369 517 419 486T498 400T527 275Q527 265 527 253T523 223H131Q134 180 155 147T212 94T291 75Q326 75 358 85T417 115L470 49Q426 18
382 4T285 -10ZM139 297H434Q430 337 412 367T364 414T298 432Q261 432 229 415T173 367T139 297Z" />
<glyph unicode="f" horiz-adv-x="389" d="M77 0L167 425H53L70 509H186L204 597Q220 671 267 710T389 750Q411 750 434 747T473 736L456 650Q440 656 424 659T388 662Q350 662 329 645T300 589L284 509H426L407 425H265L175 0H77Z" />
<glyph unicode="g" horiz-adv-x="596" d="M251 -211Q193 -211 132 -192T26 -138L74 -64Q118 -94 161 -110T248 -126Q357 -126 380 -18L391 33Q331 -6 260 -6Q196 -6 146 25T66 108T36 228Q36 287 58 339T118 432T207 494T317 516Q365 516 407 500T480 452L492
509H589L477 -29Q458 -117 401 -164T251 -211ZM284 79Q356 79 411 128L460 360Q440 392 402 411T320 430Q268 430 225 404T157 334T132 236Q132 191 151 156T205 100T284 79Z" />
<glyph unicode="h" horiz-adv-x="557" d="M5 0L154 700L256 722L201 464Q266 518 348 518Q409 518 450 491T508 415T512 306L447 0H350L412 295Q425 357 397 394T311 432Q273 432 241 417T182 372L103 0H5Z" />
<glyph unicode="i" horiz-adv-x="215" d="M5 0L113 509H210L103 0H5ZM185 591Q162 591 147 607T131 646Q131 665 140 680T165 705T199 714Q222 714 237 699T253 660Q253 642 244 627T219 601T185 591Z" />
<glyph unicode="j" horiz-adv-x="215" d="M185 591Q162 591 147 607T131 646Q131 665 140 680T165 705T199 714Q222 714 237 699T253 660Q253 642 244 627T219 601T185 591ZM-74 -210Q-89 -210 -107 -208T-138 -200L-121 -121Q-112 -124 -101 -125T-76 -127Q-48
-127 -32 -113T-10 -68L113 509H211L85 -79Q72 -143 31 -176T-74 -210Z" />
<glyph unicode="k" horiz-adv-x="514" d="M5 0L154 700L256 722L164 288L445 509H571L250 259L472 0H352L153 237L103 0H5Z" />
<glyph unicode="l" horiz-adv-x="215" d="M5 0L154 700L256 722L103 0H5Z" />
<glyph unicode="m" horiz-adv-x="861" d="M5 0L113 509H210L200 462Q263 518 342 518Q394 518 431 494T485 427Q525 473 570 495T666 518Q723 518 761 491T814 418T817 311L751 0H654L718 303Q730 360 705 396T628 432Q559 432 498 360Q498 348 497 336T493 311L427
0H329L392 298Q405 358 381 395T303 432Q270 432 239 417T181 370L103 0H5Z" />
<glyph unicode="n" horiz-adv-x="557" d="M5 0L113 509H210L201 464Q267 518 348 518Q409 518 450 491T508 415T512 306L447 0H350L412 295Q425 357 397 394T311 432Q273 432 241 417T181 372L103 0H5Z" />
<glyph unicode="o" horiz-adv-x="592" d="M278 -10Q208 -10 154 21T67 109T35 234Q35 292 57 343T117 434T206 496T313 519Q383 519 437 488T524 401T556 276Q556 218 534 166T474 75T385 13T278 -10ZM282 78Q319 78 350 93T406 135T445 197T460 271Q460 317 441
353T387 410T309 431Q272 431 241 416T184 375T145 313T131 239Q131 193 150 156T204 99T282 78Z" />
<glyph unicode="p" horiz-adv-x="595" d="M-39 -204L113 509H210L203 477Q264 516 334 516Q399 516 449 486T530 402T560 282Q560 222 538 169T478 77T388 15T278 -8Q230 -8 188 9T115 58L59 -204H-39ZM275 79Q329 79 371 105T439 175T464 273Q464 319 445 354T390
410T311 430Q275 430 243 418T184 383L135 151Q155 118 192 99T275 79Z" />
<glyph unicode="q" horiz-adv-x="596" d="M341 -204L391 31Q362 12 329 2T260 -8Q196 -8 145 23T65 107T35 227Q35 287 57 339T117 431T207 493T317 516Q366 516 408 500T481 451L493 509H590L439 -204H341ZM284 78Q320 78 352 90T412 127L461 359Q441 391 403
410T320 430Q268 430 225 404T157 334T131 235Q131 190 150 154T205 98T284 78Z" />
<glyph unicode="r" horiz-adv-x="363" d="M4 0L112 509H209L197 451Q225 484 261 502T339 520Q374 520 396 509L378 419Q368 425 350 429T314 433Q231 433 175 348L101 0H4Z" />
<glyph unicode="s" horiz-adv-x="457" d="M211 -10Q145 -10 84 14T-15 81L44 143Q82 106 124 87T212 68Q262 68 294 89T326 145Q326 169 309 183T255 206L168 226Q103 240 72 273T40 359Q40 407 64 442T131 497T233 517Q292 517 345 497T444 438L387 375Q349 407
308 424T227 441Q182 441 155 421T128 368Q128 344 145 330T201 307L288 287Q354 273 387 240T420 156Q420 109 393 71T318 12T211 -10Z" />
<glyph unicode="t" horiz-adv-x="381" d="M229 -8Q152 -8 118 29T97 134L159 425H53L71 509H176L204 639L307 663L274 509H420L402 425H256L198 153Q189 112 205 94T268 76Q283 76 296 78T328 86L311 1Q294 -3 272 -5T229 -8Z" />
<glyph unicode="u" horiz-adv-x="556" d="M208 -9Q147 -9 106 19T48 95T43 204L108 509H206L143 214Q130 152 158 115T245 77Q283 77 316 93T375 139L453 509H551L443 0H345L355 45Q289 -9 208 -9Z" />
<glyph unicode="v" horiz-adv-x="530" d="M163 0L57 509H161L235 128L473 509H581L257 0H163Z" />
<glyph unicode="w" horiz-adv-x="717" d="M98 0L66 509H158L176 135L369 509H453L488 135L664 509H758L512 0H417L384 373L192 0H98Z" />
<glyph unicode="x" horiz-adv-x="506" d="M-54 0L199 264L68 509H178L269 334L434 509H551L310 260L449 0H340L242 188L63 0H-54Z" />
<glyph unicode="y" horiz-adv-x="528" d="M5 -214Q-12 -214 -28 -212T-60 -205L-41 -118Q-33 -121 -21 -122T4 -124Q37 -124 64 -107T115 -54L150 1L57 509H161L227 115L471 509H579L210 -78Q164 -151 117 -182T5 -214Z" />
<glyph unicode="z" horiz-adv-x="468" d="M-25 0L-10 74L336 423H67L85 509H485L470 436L123 86H400L381 0H-25Z" />
<glyph unicode="{" horiz-adv-x="392" d="M180 -215Q113 -215 78 -185T41 -107T75 -4L134 84Q156 117 157 145T142 192T90 210H11L27 287H107Q160 287 187 322T203 410L183 510Q173 567 191 612T250 684T349 710Q374 710 398 706T446 689L414 617Q398 624 382
628T350 632Q307 632 283 602T268 516L290 401Q297 361 283 329T240 274T171 245Q207 233 226 208T247 151T224 81L158 -22Q137 -56 137 -82T153 -123T200 -137Q217 -137 229 -136T255 -130L257 -205Q234 -210 217 -212T180 -215Z" />
<glyph unicode="|" horiz-adv-x="289" d="M0 -208L194 700H285L91 -208H0Z" />
<glyph unicode="}" horiz-adv-x="392" d="M209 702Q276 702 311 672T348 595T313 492L254 404Q233 371 231 342T246 296T298 278H378L361 200H281Q229 200 202 165T185 77L205 -22Q216 -79 198 -124T139 -196T39 -222Q14 -222 -10 -217T-58 -202L-25 -129Q-10
-136 7 -140T39 -144Q82 -144 106 -114T120 -29L99 87Q92 126 106 158T149 213T217 243Q182 255 162 279T142 336T164 406L230 510Q252 545 252 570T235 610T188 625Q171 625 159 623T133 617L132 692Q155 698 172 700T209 702Z" />
<glyph unicode="~" horiz-adv-x="600" d="M143 306L75 322Q97 390 134 426T216 463Q237 463 260 456T313 428L378 386Q400 373 412 368T436 363Q461 363 480 382T512 442L580 426Q558 357 521 321T438 284Q416 284 394 292T341 319L276 361Q255 375 243 379T218
384Q194 384 175 365T143 306Z" />
<glyph unicode="&#xa0;" horiz-adv-x="209" />
<glyph unicode="&#xa1;" horiz-adv-x="211" d="M152 296L57 -207H-44L75 296H152ZM152 504Q176 504 192 488T208 448Q208 429 198 413T172 387T137 377Q113 377 98 393T82 434Q82 453 92 468T118 494T152 504Z" />
<glyph unicode="&#xa2;" horiz-adv-x="512" d="M186 -116L210 -4Q158 8 118 40T55 119T32 225Q32 286 54 339T115 432T207 495T322 518L342 614H390L368 512Q413 502 451 478T515 418L446 355Q427 383 403 400T350 424L276 78Q313 78 345 91T410 131L459 63Q413
25 364 8T258 -10L235 -116H186ZM229 86L302 429Q256 426 217 399T154 327T130 230Q130 178 157 139T229 86Z" />
<glyph unicode="&#xa3;" horiz-adv-x="621" d="M415 -31Q398 -31 379 -28T338 -18L166 30Q153 34 142 35T120 37Q63 37 22 -19L-41 35Q-7 78 31 98T115 120Q133 131 143 150T154 198L157 301H54L70 371H157L159 459Q161 535 192 591T275 679T397 711Q495 711 553
661T621 517L535 496Q524 629 394 629Q330 629 292 585T252 462L250 371H447L432 301H250L248 220Q246 144 200 107L373 59Q385 56 396 55T417 53Q469 53 509 102L571 52Q537 10 500 -10T415 -31Z" />
<glyph unicode="&#xa4;" horiz-adv-x="682" d="M88 57L38 107L132 202Q107 234 93 275T79 362Q79 408 93 448T132 522L38 617L89 669L184 573Q217 597 257 611T342 625Q386 625 426 611T499 572L595 668L644 618L549 523Q574 490 588 449T603 362Q603 317 590
276T551 203L645 107L595 56L499 151Q467 126 427 113T342 99Q297 99 256 113T182 152L88 57ZM342 185Q388 185 426 208T486 272T508 362Q508 412 486 451T426 514T341 538Q295 538 257 515T197 452T175 362Q175 313 197 273T257 209T342 185Z" />
<glyph unicode="&#xa5;" horiz-adv-x="656" d="M220 0L248 133H69L82 194H261L275 263H98L110 325H260L94 700H203L346 371L626 700H749L423 325H571L558 263H380L365 194H543L531 133H352L324 0H220Z" />
<glyph unicode="&#xa6;" horiz-adv-x="293" d="M199 287H107L196 700H288L199 287ZM3 -207L90 207H182L95 -207H3Z" />
<glyph unicode="&#xa7;" horiz-adv-x="559" d="M241 -52Q188 -52 136 -33T39 21L91 81Q132 49 170 34T245 18Q284 18 307 37T331 89Q331 128 279 153L180 201Q119 231 93 260T67 331Q67 388 104 428T204 481Q174 513 174 558Q174 602 197 636T260 690T354 710Q406
710 458 691T555 638L504 577Q462 609 423 624T349 640Q310 640 287 621T263 569Q263 530 314 505L414 457Q476 427 501 398T527 328Q527 270 491 230T391 176Q421 145 421 101Q421 56 398 22T335 -32T241 -52ZM328 223Q377 225 409 249T442 309Q442 332 427 350T376
384L269 434Q218 433 185 410T152 350Q152 327 168 309T217 275L328 223Z" />
<glyph unicode="&#xa8;" horiz-adv-x="600" d="M286 602Q263 602 249 617T235 654Q235 680 254 699T299 719Q321 719 335 704T350 667Q350 641 331 622T286 602ZM474 602Q453 602 438 617T423 654Q423 680 442 699T488 719Q510 719 524 704T538 667Q538 641 519
622T474 602Z" />
<glyph unicode="&#xa9;" horiz-adv-x="785" d="M379 -10Q287 -10 214 31T99 145T57 309Q57 390 87 462T172 590T296 676T446 708Q538 708 611 667T725 553T767 390Q767 308 737 236T653 108T529 22T379 -10ZM382 42Q448 42 507 69T612 143T684 253T711 383Q711
462 676 523T580 620T441 656Q375 656 316 629T212 554T140 445T114 314Q114 236 149 175T244 78T382 42ZM398 165Q351 165 315 186T257 244T235 328Q235 385 263 432T339 508T442 537Q487 537 526 517T588 462L531 415Q513 440 489 453T437 467Q404 467 375 449T329
400T312 333Q312 290 339 262T409 234Q453 234 499 269L533 214Q505 190 470 178T398 165Z" />
<glyph unicode="&#xaa;" horiz-adv-x="412" d="M202 314Q143 314 107 343T71 421Q71 479 114 513T231 548Q261 548 290 541T344 521L351 553Q369 642 266 642Q245 642 219 636T155 615L135 677Q215 709 283 709Q367 709 405 668T429 555L378 319H301L306 345Q258
314 202 314ZM227 372Q277 372 319 403L332 465Q290 492 235 492Q196 492 172 475T148 428Q148 402 169 387T227 372Z" />
<glyph unicode="&#xab;" horiz-adv-x="631" d="M417 509L132 252L306 0H204L25 255L312 509H417ZM641 509L356 252L530 0H428L249 255L536 509H641Z" />
<glyph unicode="&#xac;" horiz-adv-x="552" d="M358 0L409 239H43L61 326H521L452 0H358Z" />
<glyph unicode="&#xad;" horiz-adv-x="452" d="M60 326H413L395 239H41L60 326Z" />
<glyph unicode="&#xae;" horiz-adv-x="479" d="M275 309Q223 309 183 332T120 396T97 487Q97 534 114 575T162 647T233 697T318 716Q370 716 410 693T473 629T496 537Q496 492 479 451T430 378T359 328T275 309ZM279 347Q327 347 367 373T430 442T454 536Q454
599 416 638T314 677Q265 677 225 652T162 584T138 489Q138 426 177 387T279 347ZM207 419L247 607H319Q346 607 360 594T375 554Q375 535 364 519T332 494L358 419H317L292 489H261L246 419H207ZM309 576H279L267 518H303Q318 518 327 527T336 550Q336 576 309
576Z" />
<glyph unicode="&#xaf;" horiz-adv-x="600" d="M229 622L244 689H535L520 622H229Z" />
<glyph unicode="&#xb0;" horiz-adv-x="375" d="M239 421Q202 421 174 437T128 483T111 550Q111 592 133 628T190 686T268 708Q305 708 334 692T380 646T397 579Q397 537 375 501T318 443T239 421ZM243 479Q269 479 290 492T323 526T336 573Q336 606 316 628T264
650Q239 650 218 637T185 603T172 556Q172 524 192 502T243 479Z" />
<glyph unicode="&#xb1;" horiz-adv-x="599" d="M42 -1L59 79H470L453 -1H42ZM249 184L284 352H117L134 430H301L336 598H414L378 430H545L527 352H361L326 184H249Z" />
<glyph unicode="&#xb2;" horiz-adv-x="292" d="M46 350L56 396L225 525Q253 546 265 564T278 601Q278 622 261 635T217 649Q196 649 175 640T125 610L98 657Q130 681 163 692T229 704Q279 704 310 679T342 612Q342 579 324 551T265 491L153 405H304L292 350H46Z" />
<glyph unicode="&#xb3;" horiz-adv-x="313" d="M187 345Q141 345 107 361T50 408L99 446Q116 423 138 412T191 401Q222 401 243 416T264 453Q264 473 249 485T207 497H175L186 550H212Q243 550 264 565T286 602Q286 622 270 634T226 647Q181 647 138 612L104 656Q133
680 167 692T236 705Q286 705 319 679T352 612Q352 582 333 558T281 521Q303 511 315 494T328 454Q328 424 309 399T258 360T187 345Z" />
<glyph unicode="&#xb4;" horiz-adv-x="600" d="M317 603L434 725H553L402 603H317Z" />
<glyph unicode="&#xb5;" horiz-adv-x="567" d="M-42 -207L110 509H210L146 207Q133 147 160 112T245 77Q286 77 322 94T385 144L462 509H562L454 0H354L365 52Q293 -10 200 -10Q171 -10 147 -3T106 18L58 -207H-42Z" />
<glyph unicode="&#xb6;" horiz-adv-x="679" d="M266 0L324 274H298Q236 274 190 297T118 362T92 459Q92 529 124 583T213 669T343 700H693L544 0H459L518 274H409L351 0H266ZM427 356H535L590 617H482L427 356ZM305 356H342L397 617H333Q289 617 255 598T201 547T181
470Q181 417 214 387T305 356Z" />
<glyph unicode="&#xb7;" horiz-adv-x="250" d="M124 220Q100 220 84 236T68 276Q68 295 78 311T104 337T139 347Q163 347 178 331T193 290Q193 272 184 256T158 230T124 220Z" />
<glyph unicode="&#xb8;" horiz-adv-x="600" d="M200 -231Q164 -231 135 -219T85 -182L125 -146Q156 -180 202 -180Q231 -180 248 -167T266 -133Q266 -114 252 -104T210 -93H177L223 0H276L250 -52Q286 -57 306 -77T327 -128Q327 -157 311 -180T265 -217T200 -231Z" />
<glyph unicode="&#xb9;" horiz-adv-x="174" d="M105 350L165 633L92 606L105 662L203 700H243L168 350H105Z" />
<glyph unicode="&#xba;" horiz-adv-x="463" d="M273 311Q220 311 178 335T112 401T88 495Q88 554 117 602T194 680T300 710Q352 710 393 686T459 621T483 526Q483 468 455 419T378 341T273 311ZM277 382Q312 382 341 401T388 452T405 522Q405 556 391 582T352
623T295 639Q260 639 231 620T184 569T166 499Q166 465 180 439T220 398T277 382Z" />
<glyph unicode="&#xbb;" horiz-adv-x="631" d="M214 0L499 257L326 509H427L607 254L319 0H214ZM-10 0L274 257L101 509H202L382 254L94 0H-10Z" />
<glyph unicode="&#xbc;" horiz-adv-x="629" d="M449 0L466 83H272L284 136L513 350H587L542 138H584L572 83H531L513 0H449ZM358 138H478L508 278L358 138ZM105 350L165 633L92 606L105 662L203 700H243L168 350H105ZM-3 0L532 700H608L71 0H-3Z" />
<glyph unicode="&#xbd;" horiz-adv-x="660" d="M105 350L165 633L92 606L105 662L203 700H243L168 350H105ZM-6 0L529 700H605L68 0H-6ZM335 0L345 46L514 175Q542 196 554 214T567 251Q567 272 550 285T506 299Q485 299 464 290T414 260L387 307Q419 331 452
342T518 354Q568 354 599 329T631 262Q631 229 613 201T554 141L442 55H593L581 0H335Z" />
<glyph unicode="&#xbe;" horiz-adv-x="722" d="M187 345Q141 345 107 361T50 408L99 446Q116 423 138 412T191 401Q222 401 243 416T264 453Q264 473 249 485T207 497H175L186 550H212Q243 550 264 565T286 602Q286 622 270 634T226 647Q181 647 138 612L104 656Q133
680 167 692T236 705Q286 705 319 679T352 612Q352 582 333 558T281 521Q303 511 315 494T328 454Q328 424 309 399T258 360T187 345ZM542 0L559 83H365L377 136L606 350H680L635 138H677L665 83H624L606 0H542ZM451 138H571L601 278L451 138ZM90 0L625 700H701L164
0H90Z" />
<glyph unicode="&#xbf;" horiz-adv-x="503" d="M338 292Q331 244 318 210T281 151T221 105L158 69Q119 46 97 18T75 -42Q75 -80 107 -104T193 -128Q238 -128 280 -107T356 -49L423 -94Q375 -150 312 -182T180 -214Q121 -214 75 -194T4 -138T-22 -55Q-22 3 11 48T119
136L171 165Q209 187 228 216T255 292H338ZM334 504Q358 504 373 488T389 449Q389 430 380 414T354 388T319 378Q296 378 280 394T264 434Q264 453 274 468T300 494T334 504Z" />
<glyph unicode="&#xc0;" horiz-adv-x="687" d="M-53 0L376 700H498L633 0H526L489 205H183L60 0H-53ZM235 292H474L418 598L235 292ZM419 794L294 916H412L501 794H419Z" />
<glyph unicode="&#xc1;" horiz-adv-x="687" d="M-53 0L376 700H498L633 0H526L489 205H183L60 0H-53ZM235 292H474L418 598L235 292ZM392 794L509 916H628L477 794H392Z" />
<glyph unicode="&#xc2;" horiz-adv-x="687" d="M-53 0L376 700H498L633 0H526L489 205H183L60 0H-53ZM235 292H474L418 598L235 292ZM291 791L424 918H528L607 791H529L468 868L374 791H291Z" />
<glyph unicode="&#xc3;" horiz-adv-x="687" d="M-53 0L376 700H498L633 0H526L489 205H183L60 0H-53ZM235 292H474L418 598L235 292ZM339 791L278 811Q322 911 388 911Q417 911 442 897T489 868T531 853Q547 853 557 864T582 906L643 886Q621 835 594 810T532
785Q503 785 478 799T432 828T388 843Q374 843 363 831T339 791Z" />
<glyph unicode="&#xc4;" horiz-adv-x="687" d="M-53 0L376 700H498L633 0H526L489 205H183L60 0H-53ZM235 292H474L418 598L235 292ZM361 793Q338 793 324 808T310 845Q310 871 329 890T374 910Q396 910 410 895T425 858Q425 832 406 813T361 793ZM549 793Q528
793 513 808T498 845Q498 871 517 890T563 910Q585 910 599 895T613 858Q613 832 594 813T549 793Z" />
<glyph unicode="&#xc5;" horiz-adv-x="687" d="M-53 0L376 700H498L633 0H526L489 205H183L60 0H-53ZM235 292H474L418 598L235 292ZM459 774Q413 774 384 803T354 876Q354 910 371 939T417 986T478 1004Q524 1004 553 975T583 902Q583 868 566 840T521 793T459
774ZM460 822Q490 822 511 844T533 897Q533 923 517 939T476 956Q447 956 425 934T403 880Q403 855 419 839T460 822Z" />
<glyph unicode="&#xc6;" horiz-adv-x="946" d="M-53 0L377 700H1004L985 608H521L557 398H807L788 309H571L609 92H875L856 0H522L487 205H180L55 0H-53ZM234 292H474L422 600L234 292Z" />
<glyph unicode="&#xc7;" horiz-adv-x="708" d="M334 -231Q298 -231 269 -219T219 -182L259 -146Q290 -180 336 -180Q365 -180 382 -167T400 -133Q400 -114 386 -104T344 -93H311L353 -8Q268 1 202 46T98 162T60 320Q60 400 90 470T173 594T295 678T444 708Q534
708 605 675T722 577L644 508Q611 558 558 585T439 613Q382 613 332 591T245 529T186 437T165 324Q165 256 196 202T281 116T404 85Q462 85 517 107T615 171L671 100Q616 49 547 20T405 -11L383 -52Q420 -57 440 -77T461 -128Q461 -157 445 -180T399 -217T334 -231Z"
/>
<glyph unicode="&#xc8;" horiz-adv-x="616" d="M16 0L165 700H671L651 608H248L203 398H467L448 309H184L138 92H545L526 0H16ZM399 794L274 916H392L481 794H399Z" />
<glyph unicode="&#xc9;" horiz-adv-x="616" d="M16 0L165 700H671L651 608H248L203 398H467L448 309H184L138 92H545L526 0H16ZM372 794L489 916H608L457 794H372Z" />
<glyph unicode="&#xca;" horiz-adv-x="616" d="M16 0L165 700H671L651 608H248L203 398H467L448 309H184L138 92H545L526 0H16ZM272 791L405 918H509L588 791H510L449 868L355 791H272Z" />
<glyph unicode="&#xcb;" horiz-adv-x="616" d="M16 0L165 700H671L651 608H248L203 398H467L448 309H184L138 92H545L526 0H16ZM341 793Q318 793 304 808T290 845Q290 871 309 890T354 910Q376 910 390 895T405 858Q405 832 386 813T341 793ZM529 793Q508 793
493 808T478 845Q478 871 497 890T543 910Q565 910 579 895T593 858Q593 832 574 813T529 793Z" />
<glyph unicode="&#xcc;" horiz-adv-x="243" d="M16 0L165 700H267L118 0H16ZM204 794L79 916H197L286 794H204Z" />
<glyph unicode="&#xcd;" horiz-adv-x="243" d="M16 0L165 700H267L118 0H16ZM177 794L294 916H413L262 794H177Z" />
<glyph unicode="&#xce;" horiz-adv-x="243" d="M16 0L165 700H267L118 0H16ZM76 791L209 918H313L392 791H314L253 868L159 791H76Z" />
<glyph unicode="&#xcf;" horiz-adv-x="243" d="M16 0L165 700H267L118 0H16ZM146 793Q123 793 109 808T95 845Q95 871 114 890T159 910Q181 910 195 895T210 858Q210 832 191 813T146 793ZM334 793Q313 793 298 808T283 845Q283 871 302 890T348 910Q370 910 384
895T398 858Q398 832 379 813T334 793Z" />
<glyph unicode="&#xd0;" horiz-adv-x="735" d="M38 0L103 307H21L40 393H122L187 700H398Q468 700 527 678T628 614T694 515T718 390Q718 309 686 239T598 115T469 31T311 0H38ZM160 94H322Q382 94 434 116T526 179T588 271T611 384Q611 450 583 500T505 578T389
606H269L224 393H402L385 307H205L160 94Z" />
<glyph unicode="&#xd1;" horiz-adv-x="720" d="M16 0L165 700H262L535 169L648 700H744L595 0H507L228 546L113 0H16ZM362 791L301 811Q345 911 411 911Q440 911 465 897T512 868T554 853Q570 853 580 864T605 906L666 886Q644 835 617 810T555 785Q526 785 501
799T455 828T411 843Q397 843 386 831T362 791Z" />
<glyph unicode="&#xd2;" horiz-adv-x="795" d="M391 -11Q320 -11 260 14T154 84T84 189T59 320Q59 400 89 470T172 595T294 680T443 711Q513 711 574 686T680 616T750 511T775 380Q775 300 745 230T662 105T540 20T391 -11ZM398 86Q455 86 504 108T590 170T649
262T671 374Q671 442 641 497T557 583T436 614Q380 614 331 592T244 530T185 438T163 326Q163 258 193 204T277 118T398 86ZM435 794L310 916H428L517 794H435Z" />
<glyph unicode="&#xd3;" horiz-adv-x="795" d="M391 -11Q320 -11 260 14T154 84T84 189T59 320Q59 400 89 470T172 595T294 680T443 711Q513 711 574 686T680 616T750 511T775 380Q775 300 745 230T662 105T540 20T391 -11ZM398 86Q455 86 504 108T590 170T649
262T671 374Q671 442 641 497T557 583T436 614Q380 614 331 592T244 530T185 438T163 326Q163 258 193 204T277 118T398 86ZM408 794L525 916H644L493 794H408Z" />
<glyph unicode="&#xd4;" horiz-adv-x="795" d="M391 -11Q320 -11 260 14T154 84T84 189T59 320Q59 400 89 470T172 595T294 680T443 711Q513 711 574 686T680 616T750 511T775 380Q775 300 745 230T662 105T540 20T391 -11ZM398 86Q455 86 504 108T590 170T649
262T671 374Q671 442 641 497T557 583T436 614Q380 614 331 592T244 530T185 438T163 326Q163 258 193 204T277 118T398 86ZM308 791L441 918H545L624 791H546L485 868L391 791H308Z" />
<glyph unicode="&#xd5;" horiz-adv-x="795" d="M391 -11Q320 -11 260 14T154 84T84 189T59 320Q59 400 89 470T172 595T294 680T443 711Q513 711 574 686T680 616T750 511T775 380Q775 300 745 230T662 105T540 20T391 -11ZM398 86Q455 86 504 108T590 170T649
262T671 374Q671 442 641 497T557 583T436 614Q380 614 331 592T244 530T185 438T163 326Q163 258 193 204T277 118T398 86ZM355 791L294 811Q338 911 404 911Q433 911 458 897T505 868T547 853Q563 853 573 864T598 906L659 886Q637 835 610 810T548 785Q519 785
494 799T448 828T404 843Q390 843 379 831T355 791Z" />
<glyph unicode="&#xd6;" horiz-adv-x="795" d="M391 -11Q320 -11 260 14T154 84T84 189T59 320Q59 400 89 470T172 595T294 680T443 711Q513 711 574 686T680 616T750 511T775 380Q775 300 745 230T662 105T540 20T391 -11ZM398 86Q455 86 504 108T590 170T649
262T671 374Q671 442 641 497T557 583T436 614Q380 614 331 592T244 530T185 438T163 326Q163 258 193 204T277 118T398 86ZM377 793Q354 793 340 808T326 845Q326 871 345 890T390 910Q412 910 426 895T441 858Q441 832 422 813T377 793ZM565 793Q544 793 529
808T514 845Q514 871 533 890T579 910Q601 910 615 895T629 858Q629 832 610 813T565 793Z" />
<glyph unicode="&#xd7;" horiz-adv-x="599" d="M134 153L97 204L275 359L163 514L221 564L333 410L512 565L551 514L371 358L484 203L424 152L312 307L134 153Z" />
<glyph unicode="&#xd8;" horiz-adv-x="796" d="M391 -11Q329 -11 274 9T176 65L110 0H8L126 116Q94 158 77 209T59 320Q59 400 89 470T172 595T294 680T443 711Q506 711 560 692T657 637L721 700H824L707 585Q739 544 757 492T775 380Q775 300 745 230T662 105T540
20T391 -11ZM202 191L583 564Q553 588 516 601T436 614Q380 614 331 592T244 530T185 438T163 326Q163 288 173 254T202 191ZM398 86Q455 86 504 108T590 170T649 262T671 374Q671 413 661 447T631 510L250 138Q280 113 317 100T398 86Z" />
<glyph unicode="&#xd9;" horiz-adv-x="698" d="M323 -10Q227 -10 164 31T75 145T70 313L152 700H255L171 305Q157 240 172 191T228 114T328 86Q409 86 467 141T545 292L632 700H735L646 285Q626 191 582 125T471 25T323 -10ZM427 794L302 916H420L509 794H427Z" />
<glyph unicode="&#xda;" horiz-adv-x="698" d="M323 -10Q227 -10 164 31T75 145T70 313L152 700H255L171 305Q157 240 172 191T228 114T328 86Q409 86 467 141T545 292L632 700H735L646 285Q626 191 582 125T471 25T323 -10ZM400 794L517 916H636L485 794H400Z" />
<glyph unicode="&#xdb;" horiz-adv-x="698" d="M323 -10Q227 -10 164 31T75 145T70 313L152 700H255L171 305Q157 240 172 191T228 114T328 86Q409 86 467 141T545 292L632 700H735L646 285Q626 191 582 125T471 25T323 -10ZM300 791L433 918H537L616 791H538L477
868L383 791H300Z" />
<glyph unicode="&#xdc;" horiz-adv-x="698" d="M323 -10Q227 -10 164 31T75 145T70 313L152 700H255L171 305Q157 240 172 191T228 114T328 86Q409 86 467 141T545 292L632 700H735L646 285Q626 191 582 125T471 25T323 -10ZM369 793Q346 793 332 808T318 845Q318
871 337 890T382 910Q404 910 418 895T433 858Q433 832 414 813T369 793ZM557 793Q536 793 521 808T506 845Q506 871 525 890T571 910Q593 910 607 895T621 858Q621 832 602 813T557 793Z" />
<glyph unicode="&#xdd;" horiz-adv-x="654" d="M220 0L279 279L94 700H203L346 371L626 700H749L382 276L324 0H220ZM375 794L492 916H611L460 794H375Z" />
<glyph unicode="&#xde;" horiz-adv-x="648" d="M16 0L165 700H268L238 563H417Q479 563 524 540T594 476T620 378Q620 309 587 255T498 169T370 137H148L119 0H16ZM166 226H367Q411 226 444 244T496 295T515 370Q515 417 484 444T399 472H219L166 226Z" />
<glyph unicode="&#xdf;" horiz-adv-x="635" d="M416 -12Q353 -12 299 12T209 84L273 134Q300 96 336 79T416 61Q459 61 484 80T509 130Q509 151 494 166T445 197L372 231Q330 250 311 274T292 331Q292 364 308 386T350 424T405 452T459 477T501 507T518 548Q518
574 501 593T454 625T387 638Q315 638 268 599T205 483L102 0H5L110 493Q134 603 206 661T389 719Q455 719 506 699T586 643T615 561Q615 521 598 494T555 450T500 421T444 398T402 375T385 343Q385 328 395 317T430 294L501 261Q553 236 575 208T598 140Q598 96
575 62T510 8T416 -12Z" />
<glyph unicode="&#xe0;" horiz-adv-x="522" d="M186 -6Q108 -6 61 32T13 136Q13 186 38 223T111 281T223 302Q264 302 303 293T376 266L386 312Q399 374 371 404T272 435Q242 435 207 427T123 398L98 475Q153 498 201 508T291 518Q364 518 411 494T477 425T482
316L416 0H319L327 37Q294 15 260 5T186 -6ZM217 67Q251 67 282 77T343 109L361 196Q306 233 227 233Q173 233 140 209T106 144Q106 108 135 88T217 67ZM535 603L410 725H528L617 603H535Z" />
<glyph unicode="&#xe1;" horiz-adv-x="522" d="M186 -6Q108 -6 61 32T13 136Q13 186 38 223T111 281T223 302Q264 302 303 293T376 266L386 312Q399 374 371 404T272 435Q242 435 207 427T123 398L98 475Q153 498 201 508T291 518Q364 518 411 494T477 425T482
316L416 0H319L327 37Q294 15 260 5T186 -6ZM217 67Q251 67 282 77T343 109L361 196Q306 233 227 233Q173 233 140 209T106 144Q106 108 135 88T217 67ZM508 603L625 725H744L593 603H508Z" />
<glyph unicode="&#xe2;" horiz-adv-x="522" d="M186 -6Q108 -6 61 32T13 136Q13 186 38 223T111 281T223 302Q264 302 303 293T376 266L386 312Q399 374 371 404T272 435Q242 435 207 427T123 398L98 475Q153 498 201 508T291 518Q364 518 411 494T477 425T482
316L416 0H319L327 37Q294 15 260 5T186 -6ZM217 67Q251 67 282 77T343 109L361 196Q306 233 227 233Q173 233 140 209T106 144Q106 108 135 88T217 67ZM408 600L541 727H645L724 600H646L585 677L491 600H408Z" />
<glyph unicode="&#xe3;" horiz-adv-x="522" d="M186 -6Q108 -6 61 32T13 136Q13 186 38 223T111 281T223 302Q264 302 303 293T376 266L386 312Q399 374 371 404T272 435Q242 435 207 427T123 398L98 475Q153 498 201 508T291 518Q364 518 411 494T477 425T482
316L416 0H319L327 37Q294 15 260 5T186 -6ZM217 67Q251 67 282 77T343 109L361 196Q306 233 227 233Q173 233 140 209T106 144Q106 108 135 88T217 67ZM455 600L394 620Q438 720 504 720Q533 720 558 706T605 677T647 662Q663 662 673 673T698 715L759 695Q737
644 710 619T648 594Q619 594 594 608T548 637T504 652Q490 652 479 640T455 600Z" />
<glyph unicode="&#xe4;" horiz-adv-x="522" d="M186 -6Q108 -6 61 32T13 136Q13 186 38 223T111 281T223 302Q264 302 303 293T376 266L386 312Q399 374 371 404T272 435Q242 435 207 427T123 398L98 475Q153 498 201 508T291 518Q364 518 411 494T477 425T482
316L416 0H319L327 37Q294 15 260 5T186 -6ZM217 67Q251 67 282 77T343 109L361 196Q306 233 227 233Q173 233 140 209T106 144Q106 108 135 88T217 67ZM477 602Q454 602 440 617T426 654Q426 680 445 699T490 719Q512 719 526 704T541 667Q541 641 522 622T477
602ZM665 602Q644 602 629 617T614 654Q614 680 633 699T679 719Q701 719 715 704T729 667Q729 641 710 622T665 602Z" />
<glyph unicode="&#xe5;" horiz-adv-x="522" d="M186 -6Q108 -6 61 32T13 136Q13 186 38 223T111 281T223 302Q264 302 303 293T376 266L386 312Q399 374 371 404T272 435Q242 435 207 427T123 398L98 475Q153 498 201 508T291 518Q364 518 411 494T477 425T482
316L416 0H319L327 37Q294 15 260 5T186 -6ZM217 67Q251 67 282 77T343 109L361 196Q306 233 227 233Q173 233 140 209T106 144Q106 108 135 88T217 67ZM576 583Q530 583 501 612T471 685Q471 719 488 748T534 795T595 813Q641 813 670 784T700 711Q700 677 683
649T638 602T576 583ZM577 631Q607 631 628 653T650 706Q650 732 634 748T593 765Q564 765 542 743T520 689Q520 664 536 648T577 631Z" />
<glyph unicode="&#xe6;" horiz-adv-x="885" d="M202 -6Q120 -6 70 33T20 139Q20 189 45 225T116 282T225 302Q298 302 361 275L370 315Q382 374 353 404T256 435Q227 435 193 427T110 398L84 475Q140 498 187 508T278 518Q342 518 385 497T447 436Q484 474 531
495T628 517Q692 517 742 486T821 400T850 275Q850 265 850 253T846 223H455Q458 180 479 147T536 94T614 75Q650 75 682 85T740 115L793 49Q750 18 705 4T608 -10Q545 -10 494 14T409 79Q360 36 310 15T202 -6ZM462 297H758Q754 337 736 367T688 414T621 432Q584
432 552 415T497 367T462 297ZM221 67Q263 67 302 82T378 130Q371 146 367 164T360 202Q334 217 301 225T230 233Q178 233 145 209T112 146Q112 109 141 88T221 67Z" />
<glyph unicode="&#xe7;" horiz-adv-x="509" d="M214 -230Q178 -230 149 -218T99 -182L139 -145Q170 -179 216 -179Q245 -179 262 -166T280 -132Q280 -114 266 -103T224 -92H191L233 -7Q175 0 130 31T58 113T32 225Q32 285 54 338T116 431T205 495T315 518Q374
518 428 491T515 418L446 355Q420 392 386 410T310 429Q274 429 242 414T184 370T144 307T130 230Q130 187 149 152T202 98T277 78Q312 78 344 91T410 131L459 63Q380 -3 285 -9L264 -52Q300 -57 320 -76T341 -128Q341 -156 325 -179T279 -216T214 -230Z" />
<glyph unicode="&#xe8;" horiz-adv-x="562" d="M285 -10Q212 -10 155 21T66 106T34 231Q34 289 55 341T113 433T200 495T305 517Q369 517 419 486T498 400T527 275Q527 265 527 253T523 223H131Q134 180 155 147T212 94T291 75Q326 75 358 85T417 115L470 49Q426
18 382 4T285 -10ZM139 297H434Q430 337 412 367T364 414T298 432Q261 432 229 415T173 367T139 297ZM551 603L426 725H544L633 603H551Z" />
<glyph unicode="&#xe9;" horiz-adv-x="562" d="M285 -10Q212 -10 155 21T66 106T34 231Q34 289 55 341T113 433T200 495T305 517Q369 517 419 486T498 400T527 275Q527 265 527 253T523 223H131Q134 180 155 147T212 94T291 75Q326 75 358 85T417 115L470 49Q426
18 382 4T285 -10ZM139 297H434Q430 337 412 367T364 414T298 432Q261 432 229 415T173 367T139 297ZM524 603L641 725H760L609 603H524Z" />
<glyph unicode="&#xea;" horiz-adv-x="562" d="M285 -10Q212 -10 155 21T66 106T34 231Q34 289 55 341T113 433T200 495T305 517Q369 517 419 486T498 400T527 275Q527 265 527 253T523 223H131Q134 180 155 147T212 94T291 75Q326 75 358 85T417 115L470 49Q426
18 382 4T285 -10ZM139 297H434Q430 337 412 367T364 414T298 432Q261 432 229 415T173 367T139 297ZM424 600L557 727H661L740 600H662L601 677L507 600H424Z" />
<glyph unicode="&#xeb;" horiz-adv-x="562" d="M285 -10Q212 -10 155 21T66 106T34 231Q34 289 55 341T113 433T200 495T305 517Q369 517 419 486T498 400T527 275Q527 265 527 253T523 223H131Q134 180 155 147T212 94T291 75Q326 75 358 85T417 115L470 49Q426
18 382 4T285 -10ZM139 297H434Q430 337 412 367T364 414T298 432Q261 432 229 415T173 367T139 297ZM493 602Q470 602 456 617T442 654Q442 680 461 699T506 719Q528 719 542 704T557 667Q557 641 538 622T493 602ZM681 602Q660 602 645 617T630 654Q630 680 649
699T695 719Q717 719 731 704T745 667Q745 641 726 622T681 602Z" />
<glyph unicode="&#xec;" horiz-adv-x="215" d="M5 0L113 509H210L103 0H5ZM149 603L24 725H142L231 603H149Z" />
<glyph unicode="&#xed;" horiz-adv-x="215" d="M5 0L113 509H210L103 0H5ZM122 603L239 725H358L207 603H122Z" />
<glyph unicode="&#xee;" horiz-adv-x="215" d="M5 0L113 509H210L103 0H5ZM21 600L154 727H258L337 600H259L198 677L104 600H21Z" />
<glyph unicode="&#xef;" horiz-adv-x="215" d="M5 0L113 509H210L103 0H5ZM91 602Q68 602 54 617T40 654Q40 680 59 699T104 719Q126 719 140 704T155 667Q155 641 136 622T91 602ZM279 602Q258 602 243 617T228 654Q228 680 247 699T293 719Q315 719 329 704T343
667Q343 641 324 622T279 602Z" />
<glyph unicode="&#xf0;" horiz-adv-x="586" d="M263 -9Q197 -9 146 20T65 101T35 219Q35 275 56 323T113 409T198 468T301 489Q359 489 402 464T468 394Q469 444 455 490T413 575L308 525L282 585L369 626Q351 643 330 657T285 681L344 746Q407 714 454 667L569
722L596 662L496 614Q561 517 561 382Q561 296 539 225T477 101T383 20T263 -9ZM268 80Q314 80 353 105T417 172T441 263Q441 304 423 336T374 386T303 405Q256 405 216 380T152 313T128 222Q128 180 146 149T195 99T268 80Z" />
<glyph unicode="&#xf1;" horiz-adv-x="557" d="M5 0L113 509H210L201 464Q267 518 348 518Q409 518 450 491T508 415T512 306L447 0H350L412 295Q425 357 397 394T311 432Q273 432 241 417T181 372L103 0H5ZM495 600L434 620Q478 720 544 720Q573 720 598 706T645
677T687 662Q703 662 713 673T738 715L799 695Q777 644 750 619T688 594Q659 594 634 608T588 637T544 652Q530 652 519 640T495 600Z" />
<glyph unicode="&#xf2;" horiz-adv-x="592" d="M278 -10Q208 -10 154 21T67 109T35 234Q35 292 57 343T117 434T206 496T313 519Q383 519 437 488T524 401T556 276Q556 218 534 166T474 75T385 13T278 -10ZM282 78Q319 78 350 93T406 135T445 197T460 271Q460
317 441 353T387 410T309 431Q272 431 241 416T184 375T145 313T131 239Q131 193 150 156T204 99T282 78ZM563 603L438 725H556L645 603H563Z" />
<glyph unicode="&#xf3;" horiz-adv-x="592" d="M278 -10Q208 -10 154 21T67 109T35 234Q35 292 57 343T117 434T206 496T313 519Q383 519 437 488T524 401T556 276Q556 218 534 166T474 75T385 13T278 -10ZM282 78Q319 78 350 93T406 135T445 197T460 271Q460
317 441 353T387 410T309 431Q272 431 241 416T184 375T145 313T131 239Q131 193 150 156T204 99T282 78ZM536 603L653 725H772L621 603H536Z" />
<glyph unicode="&#xf4;" horiz-adv-x="592" d="M278 -10Q208 -10 154 21T67 109T35 234Q35 292 57 343T117 434T206 496T313 519Q383 519 437 488T524 401T556 276Q556 218 534 166T474 75T385 13T278 -10ZM282 78Q319 78 350 93T406 135T445 197T460 271Q460
317 441 353T387 410T309 431Q272 431 241 416T184 375T145 313T131 239Q131 193 150 156T204 99T282 78ZM436 600L569 727H673L752 600H674L613 677L519 600H436Z" />
<glyph unicode="&#xf5;" horiz-adv-x="592" d="M278 -10Q208 -10 154 21T67 109T35 234Q35 292 57 343T117 434T206 496T313 519Q383 519 437 488T524 401T556 276Q556 218 534 166T474 75T385 13T278 -10ZM282 78Q319 78 350 93T406 135T445 197T460 271Q460
317 441 353T387 410T309 431Q272 431 241 416T184 375T145 313T131 239Q131 193 150 156T204 99T282 78ZM483 600L422 620Q466 720 532 720Q561 720 586 706T633 677T675 662Q691 662 701 673T726 715L787 695Q765 644 738 619T676 594Q647 594 622 608T576 637T532
652Q518 652 507 640T483 600Z" />
<glyph unicode="&#xf6;" horiz-adv-x="592" d="M278 -10Q208 -10 154 21T67 109T35 234Q35 292 57 343T117 434T206 496T313 519Q383 519 437 488T524 401T556 276Q556 218 534 166T474 75T385 13T278 -10ZM282 78Q319 78 350 93T406 135T445 197T460 271Q460
317 441 353T387 410T309 431Q272 431 241 416T184 375T145 313T131 239Q131 193 150 156T204 99T282 78ZM505 602Q482 602 468 617T454 654Q454 680 473 699T518 719Q540 719 554 704T569 667Q569 641 550 622T505 602ZM693 602Q672 602 657 617T642 654Q642 680
661 699T707 719Q729 719 743 704T757 667Q757 641 738 622T693 602Z" />
<glyph unicode="&#xf7;" horiz-adv-x="599" d="M110 318L127 397H537L520 318H110ZM277 97Q252 97 235 114T217 157Q217 185 238 206T289 227Q313 227 330 210T348 166Q348 138 327 118T277 97ZM361 492Q336 492 319 509T301 552Q301 580 322 601T373 622Q397
622 414 605T432 561Q432 534 411 513T361 492Z" />
<glyph unicode="&#xf8;" horiz-adv-x="591" d="M278 -10Q232 -10 193 4T123 44L78 0H-4L82 85Q59 116 47 153T35 234Q35 292 57 343T117 434T206 496T313 519Q358 519 397 505T468 466L512 509H595L509 424Q531 394 543 356T556 276Q556 218 534 166T474 75T385
13T278 -10ZM152 154L401 399Q382 415 359 423T309 431Q272 431 241 416T184 375T145 313T131 239Q131 215 136 194T152 154ZM282 78Q319 78 350 93T407 134T446 196T460 271Q460 295 455 316T439 355L189 110Q209 95 232 87T282 78Z" />
<glyph unicode="&#xf9;" horiz-adv-x="556" d="M208 -9Q147 -9 106 19T48 95T43 204L108 509H206L143 214Q130 152 158 115T245 77Q283 77 316 93T375 139L453 509H551L443 0H345L355 45Q289 -9 208 -9ZM565 603L440 725H558L647 603H565Z" />
<glyph unicode="&#xfa;" horiz-adv-x="556" d="M208 -9Q147 -9 106 19T48 95T43 204L108 509H206L143 214Q130 152 158 115T245 77Q283 77 316 93T375 139L453 509H551L443 0H345L355 45Q289 -9 208 -9ZM538 603L655 725H774L623 603H538Z" />
<glyph unicode="&#xfb;" horiz-adv-x="556" d="M208 -9Q147 -9 106 19T48 95T43 204L108 509H206L143 214Q130 152 158 115T245 77Q283 77 316 93T375 139L453 509H551L443 0H345L355 45Q289 -9 208 -9ZM438 600L571 727H675L754 600H676L615 677L521 600H438Z" />
<glyph unicode="&#xfc;" horiz-adv-x="556" d="M208 -9Q147 -9 106 19T48 95T43 204L108 509H206L143 214Q130 152 158 115T245 77Q283 77 316 93T375 139L453 509H551L443 0H345L355 45Q289 -9 208 -9ZM507 602Q484 602 470 617T456 654Q456 680 475 699T520
719Q542 719 556 704T571 667Q571 641 552 622T507 602ZM695 602Q674 602 659 617T644 654Q644 680 663 699T709 719Q731 719 745 704T759 667Q759 641 740 622T695 602Z" />
<glyph unicode="&#xfd;" horiz-adv-x="528" d="M5 -214Q-12 -214 -28 -212T-60 -205L-41 -118Q-33 -121 -21 -122T4 -124Q37 -124 64 -107T115 -54L150 1L57 509H161L227 115L471 509H579L210 -78Q164 -151 117 -182T5 -214ZM525 603L642 725H761L610 603H525Z" />
<glyph unicode="&#xfe;" horiz-adv-x="594" d="M-39 -207L154 700L256 722L204 478Q264 516 334 516Q399 516 449 486T530 402T560 282Q560 222 538 169T478 77T388 15T278 -8Q230 -8 188 9T114 58L58 -207H-39ZM311 430Q275 430 243 418T183 383L134 151Q154
118 192 99T275 79Q329 79 371 105T439 175T464 273Q464 319 445 354T390 410T311 430Z" />
<glyph unicode="&#xff;" horiz-adv-x="528" d="M5 -214Q-12 -214 -28 -212T-60 -205L-41 -118Q-33 -121 -21 -122T4 -124Q37 -124 64 -107T115 -54L150 1L57 509H161L227 115L471 509H579L210 -78Q164 -151 117 -182T5 -214ZM494 602Q471 602 457 617T443 654Q443
680 462 699T507 719Q529 719 543 704T558 667Q558 641 539 622T494 602ZM682 602Q661 602 646 617T631 654Q631 680 650 699T696 719Q718 719 732 704T746 667Q746 641 727 622T682 602Z" />
<glyph unicode="&#x2013;" horiz-adv-x="541" d="M60 326H511L493 239H41L60 326Z" />
<glyph unicode="&#x2014;" horiz-adv-x="688" d="M60 326H658L640 239H41L60 326Z" />
<glyph unicode="&#x2018;" horiz-adv-x="250" d="M308 728L198 496H94L232 728H308Z" />
<glyph unicode="&#x2019;" horiz-adv-x="250" d="M105 496L216 729H320L181 496H105Z" />
<glyph unicode="&#x201a;" horiz-adv-x="250" d="M-56 -143L55 90H159L20 -143H-56Z" />
<glyph unicode="&#x201c;" horiz-adv-x="408" d="M308 728L198 496H93L232 728H308ZM467 728L357 496H252L391 728H467Z" />
<glyph unicode="&#x201d;" horiz-adv-x="409" d="M264 496L375 729H479L340 496H264ZM105 496L216 729H320L181 496H105Z" />
<glyph unicode="&#x201e;" horiz-adv-x="409" d="M103 -143L214 90H318L179 -143H103ZM-56 -143L55 90H159L20 -143H-56Z" />
<glyph unicode="&#x2022;" horiz-adv-x="333" d="M174 238Q134 238 107 265T79 331Q79 364 95 391T139 435T198 451Q238 451 264 425T291 358Q291 326 275 299T232 255T174 238Z" />
<glyph unicode="&#x2039;" horiz-adv-x="398" d="M417 509L132 252L306 0H204L25 255L312 509H417Z" />
<glyph unicode="&#x203a;" horiz-adv-x="406" d="M-10 0L274 257L101 509H202L382 254L94 0H-10Z" />
</font>
</defs>
</svg>
